<svg width="423" height="314" viewBox="0 0 423 314" fill="none" xmlns="http://www.w3.org/2000/svg">
<path d="M211.276 313.897C301.773 313.897 375.134 309.628 375.134 304.362C375.134 299.097 301.773 294.828 211.276 294.828C120.78 294.828 47.4189 299.097 47.4189 304.362C47.4189 309.628 120.78 313.897 211.276 313.897Z" fill="#F5F5F5"/>
<path d="M295.153 91.4264L286.77 88.0573C286.77 88.0573 275.707 108.162 272.538 109.182C268.228 110.563 259.304 114.404 254.013 115.078C253.295 115.92 252.12 118.539 252.23 119.491C259.338 121.858 274.955 118.716 278.302 116.24C285.916 110.622 295.153 91.4264 295.153 91.4264Z" fill="#EFB3A9"/>
<path d="M297.731 86.8528C299.294 92.6055 290.826 104.178 290.826 104.178L279.73 97.9793C279.73 97.9793 281.809 93.2204 284.344 88.3773C288.409 80.5526 295.948 80.2914 297.731 86.8528Z" fill="#455A64"/>
<path opacity="0.2" d="M297.731 86.8528C299.294 92.6055 290.826 104.178 290.826 104.178L279.73 97.9793C279.73 97.9793 281.809 93.2204 284.344 88.3773C288.409 80.5526 295.948 80.2914 297.731 86.8528Z" fill="black"/>
<path opacity="0.2" d="M284.133 100.456L288.502 102.898L289.271 89.5312C286.728 91.4769 284.936 97.3392 284.133 100.456Z" fill="black"/>
<path d="M290.429 82.5235C290.429 82.5235 281.792 101.677 286.829 137.339H320.861C321.402 132.134 319.611 106.731 326.093 82.2035C322.359 81.4763 318.582 80.9952 314.785 80.7632C309.969 80.485 305.141 80.485 300.325 80.7632C296.987 81.101 293.679 81.6895 290.429 82.5235Z" fill="#455A64"/>
<path opacity="0.2" d="M290.429 82.5235C290.429 82.5235 281.792 101.677 286.829 137.339H320.861C321.402 132.134 319.611 106.731 326.093 82.2035C322.359 81.4763 318.582 80.9952 314.785 80.7632C309.969 80.485 305.141 80.485 300.325 80.7632C296.987 81.101 293.679 81.6895 290.429 82.5235Z" fill="black"/>
<g style="mix-blend-mode:multiply">
<path d="M282.536 305.121C282.485 306.03 295.39 306.763 311.354 306.763C327.318 306.763 340.316 306.03 340.366 305.121C340.417 304.211 327.521 303.487 311.548 303.487C295.576 303.487 282.595 304.219 282.536 305.121Z" fill="#E8ECF1"/>
</g>
<path d="M305.253 281.219L299.217 283.548L304.416 296.935L310.452 294.606L305.253 281.219Z" fill="#EFB3A9"/>
<path d="M332.169 298.643H325.805L323.473 283.963H329.836L332.169 298.643Z" fill="#EFB3A9"/>
<path d="M325.366 297.911H332.515C332.639 297.911 332.759 297.955 332.854 298.035C332.948 298.116 333.011 298.227 333.031 298.349L333.952 303.983C333.971 304.125 333.96 304.269 333.919 304.405C333.877 304.542 333.807 304.668 333.712 304.775C333.618 304.882 333.501 304.968 333.37 305.026C333.24 305.084 333.098 305.113 332.955 305.112C330.462 305.07 329.262 304.918 326.118 304.918C324.183 304.918 320.202 305.121 317.515 305.121C314.827 305.121 314.65 302.493 315.757 302.248C320.726 301.179 322.653 299.722 324.309 298.307C324.601 298.051 324.977 297.91 325.366 297.911Z" fill="black"/>
<path d="M304.238 295.738L310.999 293.767C311.12 293.733 311.248 293.741 311.364 293.79C311.479 293.839 311.574 293.926 311.633 294.036L314.168 299.09C314.227 299.218 314.257 299.358 314.256 299.499C314.256 299.64 314.224 299.779 314.163 299.906C314.103 300.034 314.016 300.147 313.907 300.237C313.798 300.327 313.671 300.393 313.534 300.429C311.075 301.103 309.427 301.516 306.351 302.408C304.23 303.023 302.066 304.026 299.97 304.691C298.517 305.154 295.103 305.171 293.336 305.171C290.725 305.171 290.142 302.425 291.266 302.299C294.097 301.987 294.477 302.13 296.041 301.347C298.599 300.233 300.917 298.637 302.869 296.647C303.237 296.229 303.709 295.915 304.238 295.738Z" fill="black"/>
<path d="M255.078 115.044L248.081 112.121L245.199 119.853C248.067 120.289 250.985 120.289 253.853 119.853L255.078 115.044Z" fill="#EFB3A9"/>
<path d="M242.875 111.919L242.689 117.057L245.199 119.836L248.081 112.104L242.875 111.919Z" fill="#EFB3A9"/>
<path d="M306.081 282.356L300.026 284.686L302.707 291.608L308.762 289.278L306.081 282.356Z" fill="#CF6F64"/>
<path d="M329.836 283.963H323.473L324.681 291.535H331.045L329.836 283.963Z" fill="#CF6F64"/>
<path opacity="0.2" d="M285.747 127.695C285.874 129.219 286.018 130.778 286.204 132.378L311.506 124.191C315.457 123.024 318.891 120.549 321.242 117.175C321.343 114.926 321.47 112.559 321.664 110.091C321.749 108.895 321.85 107.665 321.96 106.419C322.07 105.172 322.222 103.791 322.383 102.46L285.747 127.695Z" fill="black"/>
<path d="M294.012 100.068L293.167 99.9671C293.666 95.7557 296.818 92.4371 300.139 92.5213V93.3636C297.232 93.3047 294.46 96.2948 294.012 100.068Z" fill="white"/>
<path d="M298.517 107.842H298.373V107C301.28 107.11 304.01 104.086 304.458 100.321L305.303 100.422C304.855 104.541 301.804 107.842 298.517 107.842Z" fill="white"/>
<path d="M314.312 64.5325C313.12 69.1734 311.717 77.672 314.785 80.7632C314.785 80.7632 312.639 85.4715 303.993 85.4715C296.091 85.4715 300.325 80.7632 300.325 80.7632C305.582 79.5334 305.675 75.7095 304.982 72.0877L314.312 64.5325Z" fill="#EFB3A9"/>
<path d="M310.509 67.6151L304.99 72.0876C305.161 72.9199 305.26 73.7653 305.286 74.6144C306.9 76.2148 310.137 72.1634 310.467 70.0914C310.634 69.2757 310.648 68.4361 310.509 67.6151Z" fill="#CF6F64"/>
<path d="M295.5 64.4734C295.884 65.1368 296.401 65.714 297.019 66.1691C297.637 66.6241 298.342 66.9473 299.091 67.1182C301.12 67.5646 302.134 65.7032 301.576 63.8333C301.077 62.1487 299.413 59.883 297.351 60.2705C296.909 60.3612 296.495 60.556 296.145 60.8387C295.794 61.1214 295.517 61.4837 295.335 61.8953C295.154 62.3068 295.074 62.7557 295.103 63.2043C295.132 63.6528 295.268 64.088 295.5 64.4734Z" fill="#CF6F64"/>
<path d="M298.855 49.6241C295.694 51.0644 294.579 63.5806 298.551 65.4336C302.523 67.2866 304.838 46.8867 298.855 49.6241Z" fill="black"/>
<path d="M315.275 57.5499C314.515 63.8333 314.43 67.5309 311.05 70.7484C310.002 71.8161 308.679 72.5745 307.226 72.94C305.773 73.3054 304.248 73.2636 302.817 72.8192C301.387 72.3747 300.107 71.545 299.12 70.4215C298.133 69.2981 297.477 67.9246 297.224 66.4528C296.201 60.8095 297.613 51.4855 303.934 48.9839C305.262 48.4001 306.723 48.1809 308.165 48.3491C309.606 48.5173 310.977 49.0668 312.134 49.9407C313.291 50.8145 314.192 51.9808 314.744 53.3188C315.297 54.6567 315.48 56.1176 315.275 57.5499Z" fill="#EFB3A9"/>
<path d="M304.889 52.8753C309.571 51.6877 313.01 50.8791 311.777 54.762C310.145 59.9504 308.185 64.9704 310.813 65.1978C312.419 65.341 319.518 62.3425 318.613 59.3019C317.827 56.6571 321.149 55.9328 321.74 54.5935C323.929 49.742 317.667 50.3822 318.782 47.4342C319.898 44.4862 313.712 39.7358 310.331 42.1026C304.83 45.9265 295.39 45.8676 300.351 39.5757C303.909 35.0864 297.562 36.0045 297.562 36.0045C297.562 36.0045 301.399 38.2702 294.942 41.7741C288.114 45.5138 294.376 55.5622 304.889 52.8753Z" fill="black"/>
<path d="M317.76 64.4734C316.836 65.8064 315.447 66.7491 313.864 67.1182C311.776 67.5646 310.974 65.7032 311.76 63.8333C312.461 62.1487 314.388 59.883 316.382 60.2705C318.377 60.6579 318.833 62.8226 317.76 64.4734Z" fill="#EFB3A9"/>
<path d="M286.829 137.339C286.829 137.339 281.116 188.297 280.668 207.635C280.212 227.749 300.03 290.507 300.03 290.507L310.171 286.296C310.171 286.296 298.339 228.953 300.03 209.202C301.821 187.665 309.224 137.373 309.224 137.373L286.829 137.339Z" fill="#455A64"/>
<path opacity="0.2" d="M301.027 151.329C296.472 160.746 299.539 179.369 302.007 190.402C302.945 182.611 304.061 174.155 305.117 166.33C305.016 154.302 304.078 145.012 301.027 151.329Z" fill="black"/>
<path d="M309.723 282.96C309.774 282.96 310.923 286.178 310.923 286.178L299.227 291.08L297.384 287.66L309.723 282.96Z" fill="#455A64"/>
<path d="M298.906 137.339C298.906 137.339 303.275 185.804 306.165 203.955C309.343 223.841 321.799 290.069 321.799 290.069H333.453C333.453 290.069 326.473 225.45 325.155 205.757C323.718 184.397 320.861 137.339 320.861 137.339H298.906Z" fill="#455A64"/>
<path d="M333.631 287.045C333.682 287.045 334.02 290.288 334.02 290.288H321.208L320.295 286.565L333.631 287.045Z" fill="#455A64"/>
<path opacity="0.2" d="M329.169 283.205C329.142 283.205 329.117 283.196 329.096 283.179C329.076 283.162 329.063 283.138 329.059 283.112C328.991 282.522 322.695 224.152 321.512 206.465C320.228 187.278 317.641 144.717 317.616 144.288C317.615 144.274 317.617 144.26 317.621 144.246C317.626 144.233 317.633 144.221 317.643 144.211C317.652 144.2 317.664 144.192 317.677 144.187C317.69 144.181 317.704 144.178 317.718 144.178C317.745 144.178 317.772 144.189 317.792 144.207C317.813 144.226 317.825 144.252 317.827 144.279C317.827 144.709 320.439 187.235 321.723 206.456C322.907 224.144 329.203 282.472 329.262 283.103C329.264 283.117 329.264 283.132 329.26 283.145C329.257 283.159 329.25 283.172 329.241 283.183C329.233 283.194 329.222 283.203 329.209 283.21C329.197 283.216 329.183 283.22 329.169 283.221V283.205Z" fill="black"/>
<path d="M305.607 59.3019C305.607 59.8157 305.286 60.2284 304.948 60.2284C304.61 60.2284 304.365 59.8157 304.399 59.3019C304.432 58.7881 304.72 58.3754 305.058 58.3754C305.396 58.3754 305.641 58.7965 305.607 59.3019Z" fill="black"/>
<path d="M299.81 59.3019C299.81 59.8157 299.48 60.2284 299.151 60.2284C298.821 60.2284 298.567 59.8157 298.593 59.3019C298.618 58.7881 298.922 58.3754 299.26 58.3754C299.598 58.3754 299.844 58.7965 299.81 59.3019Z" fill="black"/>
<path d="M301.635 59.563C300.93 61.1319 300.021 62.6016 298.931 63.9344C299.776 64.7767 301.356 64.3892 301.356 64.3892L301.635 59.563Z" fill="#DF5753"/>
<path d="M301.787 66.5371C301.768 66.5371 301.748 66.5331 301.73 66.5254C301.712 66.5177 301.696 66.5064 301.683 66.4922C301.669 66.478 301.659 66.4612 301.652 66.4428C301.645 66.4245 301.642 66.4049 301.644 66.3854C301.646 66.3445 301.664 66.3059 301.694 66.2777C301.723 66.2495 301.763 66.2338 301.804 66.2338C302.451 66.2383 303.09 66.0984 303.675 65.8244C304.26 65.5503 304.776 65.1492 305.185 64.6503C305.214 64.6249 305.251 64.6108 305.29 64.6108C305.329 64.6108 305.367 64.6249 305.396 64.6503C305.423 64.6786 305.439 64.7164 305.439 64.7556C305.439 64.7949 305.423 64.8327 305.396 64.8609C304.958 65.3911 304.407 65.8168 303.782 66.1068C303.158 66.3969 302.476 66.5439 301.787 66.5371Z" fill="black"/>
<path d="M306.638 57.7521C306.598 57.7727 306.553 57.7835 306.507 57.7835C306.462 57.7835 306.417 57.7727 306.376 57.7521C306.06 57.5484 305.7 57.4216 305.326 57.3821C304.952 57.3426 304.573 57.3914 304.221 57.5246C304.187 57.5417 304.15 57.5518 304.111 57.5543C304.073 57.5567 304.035 57.5515 303.998 57.539C303.962 57.5264 303.929 57.5068 303.9 57.4811C303.872 57.4555 303.849 57.4245 303.833 57.3899C303.801 57.3149 303.8 57.2307 303.83 57.1552C303.86 57.0797 303.919 57.0188 303.993 56.9856C304.435 56.8057 304.914 56.7348 305.389 56.7788C305.864 56.8228 306.322 56.9804 306.723 57.2383C306.755 57.2602 306.783 57.2884 306.804 57.3211C306.826 57.3538 306.84 57.3904 306.847 57.4288C306.854 57.4672 306.854 57.5066 306.845 57.5447C306.837 57.5829 306.821 57.619 306.799 57.651C306.756 57.6993 306.7 57.7343 306.638 57.7521Z" fill="black"/>
<path d="M297.57 56.0675C297.525 56.0566 297.484 56.0332 297.452 56.0001C297.424 55.9726 297.401 55.9399 297.386 55.9037C297.371 55.8676 297.363 55.8287 297.363 55.7895C297.363 55.7503 297.371 55.7115 297.386 55.6753C297.401 55.6392 297.424 55.6064 297.452 55.579C297.776 55.2169 298.179 54.9342 298.631 54.7531C299.082 54.5719 299.57 54.4971 300.055 54.5345C300.094 54.5405 300.131 54.5544 300.164 54.5753C300.198 54.5962 300.226 54.6237 300.248 54.656C300.271 54.6884 300.286 54.725 300.293 54.7635C300.301 54.802 300.3 54.8416 300.291 54.8799C300.273 54.9579 300.227 55.0266 300.162 55.0731C300.097 55.1196 300.016 55.1408 299.937 55.1325C299.553 55.1084 299.168 55.1717 298.812 55.3177C298.456 55.4636 298.139 55.6883 297.883 55.9748C297.844 56.0174 297.795 56.0487 297.74 56.065C297.685 56.0814 297.626 56.0822 297.57 56.0675Z" fill="black"/>
<path d="M329.363 90.4914L320.574 88.1583C320.574 88.1583 311.954 109.308 308.903 110.681C304.762 112.568 294.274 119.104 289.812 122.195C289.567 123.248 289.761 126.036 290.319 126.802C297.925 125.421 312.486 119.836 315.529 116.998C322.467 110.521 329.363 90.4914 329.363 90.4914Z" fill="#EFB3A9"/>
<path d="M323.228 299.022C322.799 299.056 322.371 298.94 322.019 298.694C321.91 298.596 321.829 298.472 321.783 298.333C321.737 298.194 321.728 298.046 321.757 297.902C321.763 297.813 321.792 297.726 321.843 297.652C321.893 297.578 321.963 297.519 322.045 297.481C322.754 297.119 324.74 298.374 324.969 298.517C324.994 298.532 325.013 298.556 325.024 298.583C325.034 298.61 325.036 298.64 325.028 298.669C325.021 298.698 325.006 298.725 324.985 298.747C324.964 298.769 324.938 298.786 324.909 298.795C324.358 298.93 323.795 299.006 323.228 299.022ZM322.383 297.709C322.319 297.694 322.252 297.694 322.188 297.709C322.156 297.725 322.129 297.75 322.111 297.782C322.093 297.813 322.084 297.849 322.087 297.885C322.064 297.983 322.068 298.086 322.098 298.182C322.127 298.278 322.182 298.364 322.256 298.433C322.585 298.728 323.414 298.761 324.504 298.551C323.855 298.125 323.124 297.838 322.357 297.709H322.383Z" fill="#455A64"/>
<path d="M324.867 298.795C324.845 298.802 324.822 298.802 324.8 298.795C324.166 298.441 322.974 297.052 323.152 296.344C323.178 296.232 323.242 296.132 323.332 296.06C323.423 295.988 323.535 295.949 323.65 295.948C323.764 295.933 323.879 295.943 323.988 295.976C324.098 296.009 324.199 296.066 324.284 296.142C324.985 296.74 325.028 298.576 325.028 298.669C325.032 298.696 325.027 298.725 325.013 298.749C324.999 298.773 324.978 298.793 324.952 298.803C324.923 298.809 324.894 298.806 324.867 298.795ZM323.735 296.226H323.676C323.481 296.226 323.456 296.336 323.447 296.378C323.346 296.79 324.098 297.843 324.723 298.34C324.721 297.629 324.499 296.935 324.09 296.352C323.992 296.267 323.865 296.222 323.735 296.226Z" fill="#455A64"/>
<path d="M300.79 297.97C300.273 298.149 299.71 298.149 299.193 297.97C299.075 297.906 298.976 297.814 298.903 297.702C298.831 297.591 298.788 297.462 298.779 297.33C298.768 297.246 298.779 297.162 298.81 297.084C298.841 297.005 298.891 296.936 298.956 296.883C299.632 296.277 302.396 296.883 302.708 297.001C302.738 297.009 302.764 297.026 302.783 297.051C302.801 297.075 302.811 297.105 302.81 297.136C302.811 297.167 302.803 297.199 302.786 297.226C302.77 297.253 302.746 297.274 302.717 297.287C302.095 297.567 301.45 297.796 300.79 297.97ZM299.413 296.967C299.316 296.987 299.226 297.03 299.151 297.094C299.124 297.114 299.103 297.141 299.091 297.172C299.079 297.204 299.076 297.238 299.083 297.271C299.088 297.359 299.116 297.445 299.163 297.52C299.211 297.595 299.276 297.657 299.353 297.7C299.801 297.936 300.841 297.751 302.185 297.186C301.279 296.959 300.342 296.885 299.413 296.967Z" fill="#455A64"/>
<path d="M302.692 297.287H302.624C301.779 297.136 300.089 296.167 300.038 295.443C300.038 295.274 300.114 295.039 300.52 294.904C300.657 294.855 300.802 294.834 300.947 294.843C301.093 294.852 301.235 294.89 301.365 294.954C302.278 295.401 302.759 297.018 302.785 297.094C302.791 297.119 302.79 297.146 302.782 297.171C302.775 297.196 302.761 297.219 302.742 297.237C302.73 297.257 302.712 297.275 302.692 297.287ZM300.689 295.156H300.604C300.342 295.249 300.342 295.359 300.342 295.392C300.342 295.83 301.568 296.63 302.421 296.9C302.225 296.223 301.808 295.631 301.238 295.215C301.068 295.129 300.873 295.108 300.689 295.156Z" fill="#455A64"/>
<path d="M290.531 121.698L281.716 125.741L280.694 128.268L283.947 130.449C283.947 130.449 290.032 129.792 291.764 125.892L290.531 121.698Z" fill="#EFB3A9"/>
<path d="M290.902 126.945C290.705 125.257 290.146 123.631 289.263 122.178L290.657 121.133C291.706 122.808 292.375 124.691 292.618 126.65L290.902 126.945Z" fill="black"/>
<path d="M292.407 122.894C292.593 123.186 292.685 123.528 292.669 123.874C292.653 124.22 292.531 124.552 292.319 124.826C292.107 125.1 291.815 125.303 291.483 125.406C291.152 125.509 290.796 125.508 290.466 125.402C290.135 125.297 289.845 125.092 289.635 124.817C289.424 124.541 289.305 124.208 289.291 123.862C289.278 123.516 289.372 123.174 289.561 122.884C289.749 122.593 290.023 122.367 290.345 122.237C290.706 122.053 291.125 122.019 291.511 122.142C291.897 122.266 292.219 122.536 292.407 122.894Z" fill="black"/>
<path d="M275.758 129.009L276.933 130.188L284.843 126.819L281.716 125.741L275.758 129.009Z" fill="#EFB3A9"/>
<path opacity="0.2" d="M309.723 282.96C309.774 282.96 310.923 286.178 310.923 286.178L299.227 291.08L297.384 287.66L309.723 282.96Z" fill="black"/>
<path opacity="0.2" d="M333.631 287.045C333.682 287.045 334.02 290.288 334.02 290.288H321.208L320.295 286.565L333.631 287.045Z" fill="black"/>
<path d="M331.653 88.0657C333.977 95.5367 324.893 105.754 324.893 105.754L312.343 100.649C313.83 96.3311 315.545 92.0942 317.481 87.9562C321.335 79.6766 329.304 80.5273 331.653 88.0657Z" fill="#455A64"/>
<path opacity="0.2" d="M331.653 88.0657C333.977 95.5367 324.893 105.754 324.893 105.754L312.343 100.649C313.83 96.3311 315.545 92.0942 317.481 87.9562C321.335 79.6766 329.304 80.5273 331.653 88.0657Z" fill="black"/>
<path d="M206.95 13.2124H201.549V14.0799H206.95V13.2124Z" fill="#455A64"/>
<path d="M276.855 47.5491L276.202 62.0048L277.071 62.0438L277.725 47.5882L276.855 47.5491Z" fill="#455A64"/>
<path d="M275.175 17.1038H175.452L166.173 224.068H265.896L275.175 17.1038Z" fill="#455A64"/>
<path opacity="0.56" d="M272.2 19.9506H172.478L163.198 226.915H262.921L272.2 19.9506Z" fill="#FAFAFA"/>
<path opacity="0.07" d="M269.225 22.7891H169.503L160.215 229.753H259.938L269.225 22.7891Z" fill="#455A64"/>
<path d="M257.876 113.056H172.757L172.047 128.891H257.166L257.876 113.056Z" fill="white"/>
<path d="M219.567 101.5H173.272L172.959 108.583H219.254L219.567 101.5Z" fill="#455A64"/>
<path d="M255.957 155.793H170.838L170.128 171.628H255.247L255.957 155.793Z" fill="white"/>
<path opacity="0.47" d="M240.348 193.013H183.109L182.256 211.99H239.495L240.348 193.013Z" fill="#455A64"/>
<path d="M236.52 214.938H179.281C179.256 214.944 179.23 214.944 179.205 214.938C179.196 214.913 179.196 214.887 179.205 214.862L180.05 195.877C180.05 195.864 180.052 195.851 180.058 195.84C180.063 195.828 180.07 195.817 180.08 195.808C180.089 195.8 180.101 195.793 180.113 195.789C180.125 195.785 180.138 195.783 180.151 195.785H237.39C237.401 195.779 237.412 195.777 237.424 195.777C237.436 195.777 237.447 195.779 237.458 195.785C237.464 195.795 237.467 195.806 237.467 195.818C237.467 195.83 237.464 195.842 237.458 195.852L236.63 214.879C236.619 214.899 236.604 214.915 236.584 214.925C236.564 214.936 236.542 214.94 236.52 214.938ZM179.382 214.736H236.418L237.263 195.953H180.227L179.382 214.736Z" fill="white"/>
<path d="M209.569 144.237H171.354L171.041 151.329H209.248L209.569 144.237Z" fill="#455A64"/>
<path d="M239.258 61.9045C239.039 66.5129 237.395 70.941 234.551 74.5808C232.445 77.3301 229.735 79.562 226.63 81.1053C223.524 82.6486 220.105 83.4622 216.634 83.4837C213.83 83.505 211.051 82.9538 208.469 81.8642C205.886 80.7746 203.555 79.1695 201.618 77.1479C199.682 75.1263 198.181 72.7309 197.208 70.1093C196.236 67.4877 195.812 64.6955 195.963 61.9045C196.26 56.113 198.766 50.6535 202.968 46.6423C207.171 42.6312 212.751 40.3715 218.57 40.3254C221.376 40.2993 224.158 40.847 226.744 41.9348C229.33 43.0225 231.664 44.6272 233.603 46.6496C235.542 48.672 237.044 51.0691 238.017 53.693C238.989 56.3168 239.412 59.1115 239.258 61.9045Z" fill="white"/>
<path d="M241.295 44.8399C241.24 46.0653 240.802 47.243 240.044 48.209C239.483 48.9392 238.762 49.532 237.936 49.9422C237.109 50.3524 236.2 50.5691 235.277 50.5758C234.383 50.5812 233.501 50.3683 232.709 49.9558C231.916 49.5432 231.237 48.9435 230.731 48.209C230.06 47.2165 229.728 46.0351 229.784 44.8399C229.866 43.3022 230.533 41.8536 231.65 40.7893C232.766 39.725 234.248 39.1253 235.793 39.1124C236.538 39.1056 237.277 39.251 237.964 39.5396C238.651 39.8283 239.271 40.254 239.786 40.7906C240.302 41.3272 240.702 41.9633 240.961 42.6597C241.22 43.3561 241.334 44.0981 241.295 44.8399Z" fill="#455A64"/>
<path d="M181.926 120.973C181.885 121.652 181.588 122.29 181.094 122.759C180.6 123.228 179.946 123.493 179.264 123.5C178.934 123.504 178.608 123.441 178.304 123.314C178 123.187 177.726 122.999 177.498 122.762C177.27 122.526 177.093 122.245 176.978 121.937C176.863 121.629 176.813 121.301 176.83 120.973C176.867 120.293 177.163 119.653 177.658 119.183C178.152 118.713 178.809 118.45 179.492 118.447C179.821 118.444 180.147 118.508 180.45 118.636C180.754 118.763 181.028 118.951 181.255 119.187C181.483 119.424 181.66 119.704 181.776 120.011C181.891 120.319 181.942 120.646 181.926 120.973Z" fill="black"/>
<path d="M193.318 120.973C193.279 121.653 192.983 122.292 192.488 122.761C191.994 123.231 191.339 123.495 190.656 123.5C190.327 123.503 190.001 123.439 189.699 123.311C189.396 123.184 189.122 122.996 188.895 122.759C188.668 122.523 188.492 122.242 188.378 121.935C188.263 121.628 188.213 121.301 188.23 120.973C188.267 120.295 188.562 119.655 189.055 119.186C189.548 118.716 190.202 118.452 190.884 118.447C191.213 118.443 191.54 118.506 191.844 118.633C192.148 118.76 192.422 118.948 192.65 119.184C192.878 119.421 193.055 119.702 193.17 120.01C193.285 120.318 193.335 120.646 193.318 120.973Z" fill="black"/>
<path d="M204.718 120.973C204.68 121.653 204.383 122.292 203.889 122.761C203.394 123.231 202.739 123.495 202.056 123.5C201.727 123.503 201.401 123.439 201.098 123.311C200.795 123.184 200.521 122.996 200.293 122.76C200.065 122.523 199.888 122.243 199.773 121.935C199.658 121.628 199.606 121.301 199.622 120.973C199.661 120.294 199.958 119.655 200.452 119.185C200.947 118.716 201.602 118.452 202.285 118.447C202.614 118.443 202.941 118.506 203.244 118.633C203.548 118.76 203.823 118.948 204.051 119.184C204.279 119.421 204.456 119.702 204.571 120.01C204.686 120.318 204.736 120.646 204.718 120.973Z" fill="black"/>
<path d="M180.008 163.711C179.967 164.389 179.67 165.027 179.176 165.496C178.682 165.965 178.028 166.23 177.345 166.237C177.016 166.24 176.69 166.176 176.387 166.048C176.084 165.921 175.81 165.733 175.582 165.497C175.354 165.26 175.177 164.98 175.062 164.673C174.947 164.365 174.895 164.038 174.912 163.711C174.95 163.031 175.247 162.392 175.741 161.922C176.236 161.453 176.891 161.189 177.574 161.184C177.903 161.181 178.229 161.245 178.532 161.373C178.835 161.5 179.109 161.688 179.337 161.924C179.565 162.161 179.742 162.441 179.857 162.748C179.973 163.056 180.024 163.383 180.008 163.711Z" fill="black"/>
<path d="M191.4 163.711C191.361 164.388 191.066 165.027 190.573 165.496C190.08 165.965 189.427 166.23 188.746 166.237C188.417 166.241 188.09 166.178 187.786 166.051C187.482 165.924 187.208 165.736 186.98 165.499C186.752 165.263 186.575 164.982 186.46 164.674C186.345 164.366 186.295 164.038 186.312 163.711C186.351 163.031 186.647 162.392 187.142 161.922C187.636 161.453 188.291 161.189 188.974 161.184C189.303 161.181 189.629 161.245 189.931 161.373C190.234 161.5 190.508 161.688 190.735 161.925C190.962 162.161 191.138 162.442 191.252 162.749C191.367 163.056 191.417 163.383 191.4 163.711Z" fill="black"/>
<path d="M202.825 163.711C202.787 164.39 202.49 165.029 201.996 165.499C201.501 165.968 200.846 166.232 200.163 166.237C199.835 166.239 199.509 166.174 199.206 166.046C198.904 165.918 198.63 165.731 198.403 165.494C198.175 165.258 197.998 164.978 197.882 164.671C197.767 164.365 197.715 164.038 197.729 163.711C197.77 163.032 198.067 162.394 198.561 161.925C199.055 161.456 199.709 161.191 200.391 161.184C200.721 161.18 201.048 161.243 201.351 161.37C201.655 161.497 201.93 161.685 202.158 161.922C202.386 162.159 202.563 162.439 202.678 162.747C202.792 163.055 202.843 163.383 202.825 163.711Z" fill="black"/>
<path d="M214.201 163.711C214.16 164.389 213.863 165.027 213.369 165.496C212.875 165.965 212.221 166.23 211.538 166.237C211.21 166.239 210.884 166.174 210.582 166.046C210.279 165.918 210.005 165.73 209.778 165.494C209.55 165.258 209.373 164.978 209.257 164.671C209.142 164.365 209.09 164.038 209.105 163.711C209.145 163.032 209.442 162.394 209.936 161.925C210.43 161.456 211.084 161.191 211.767 161.184C212.096 161.181 212.422 161.245 212.725 161.373C213.028 161.5 213.302 161.688 213.53 161.924C213.758 162.161 213.935 162.441 214.05 162.748C214.166 163.056 214.217 163.383 214.201 163.711Z" fill="black"/>
<path d="M225.643 163.711C225.603 164.389 225.305 165.027 224.811 165.496C224.317 165.965 223.663 166.23 222.981 166.237C222.652 166.241 222.325 166.178 222.021 166.051C221.718 165.924 221.443 165.736 221.215 165.499C220.987 165.263 220.81 164.982 220.695 164.674C220.58 164.366 220.53 164.038 220.547 163.711C220.586 163.031 220.883 162.392 221.377 161.922C221.871 161.453 222.527 161.189 223.209 161.184C223.538 161.181 223.865 161.245 224.168 161.373C224.471 161.5 224.745 161.688 224.973 161.924C225.201 162.161 225.378 162.441 225.493 162.748C225.608 163.056 225.659 163.383 225.643 163.711Z" fill="black"/>
<path d="M223.914 60.7806C227.451 57.3331 227.639 51.8072 224.333 48.4382C221.027 45.0691 215.48 45.1327 211.943 48.5802C208.405 52.0276 208.218 57.5536 211.523 60.9226C214.829 64.2917 220.376 64.2281 223.914 60.7806Z" fill="#455A64"/>
<path d="M234.551 74.5807C232.445 77.3301 229.735 79.562 226.63 81.1053C223.524 82.6486 220.105 83.4622 216.634 83.4836C213.269 83.5121 209.949 82.7149 206.966 81.1623C203.983 79.6097 201.429 77.3494 199.53 74.5807C203.637 70.5041 210.136 67.8425 217.336 67.8425C224.536 67.8425 230.807 70.5041 234.551 74.5807Z" fill="#455A64"/>
<path opacity="0.1" d="M223.914 60.7806C227.451 57.3331 227.639 51.8072 224.333 48.4382C221.027 45.0691 215.48 45.1327 211.943 48.5802C208.405 52.0276 208.218 57.5536 211.523 60.9226C214.829 64.2917 220.376 64.2281 223.914 60.7806Z" fill="white"/>
<path opacity="0.1" d="M234.551 74.5807C232.445 77.3301 229.735 79.562 226.63 81.1053C223.524 82.6486 220.105 83.4622 216.634 83.4836C213.269 83.5121 209.949 82.7149 206.966 81.1623C203.983 79.6097 201.429 77.3494 199.53 74.5807C203.637 70.5041 210.136 67.8425 217.336 67.8425C224.536 67.8425 230.807 70.5041 234.551 74.5807Z" fill="white"/>
<path d="M110.21 132.706C109.407 134.458 108.562 136.387 107.827 138.257C107.092 140.127 106.34 142.056 105.689 143.976C104.36 147.761 103.348 151.648 102.663 155.599L102.478 156.838C102.46 157.05 102.48 157.264 102.537 157.469C102.736 158.167 103.05 158.828 103.466 159.423C104.552 160.965 105.811 162.378 107.219 163.635C108.703 165.011 110.26 166.307 111.884 167.518C113.506 168.764 115.213 169.977 116.895 171.123L115.315 174.079C111.299 172.335 107.487 170.157 103.948 167.585C102.06 166.213 100.356 164.605 98.8774 162.801C98.0011 161.727 97.3177 160.51 96.8576 159.204C96.59 158.388 96.4531 157.536 96.4519 156.677C96.4519 156.475 96.4519 156.181 96.4519 156.037V155.625L96.5365 154.782C97.0209 150.394 97.9468 146.066 99.2999 141.862C99.9591 139.79 100.661 137.726 101.463 135.713C102.266 133.7 103.094 131.729 104.117 129.682L110.21 132.706Z" fill="#EFB3A9"/>
<path d="M115.703 170.6L121.678 167.585L120.132 174.121C120.132 174.121 116.033 175.267 114.132 173.279L115.703 170.6Z" fill="#EFB3A9"/>
<path d="M127.146 168.655L125.557 174.062L120.132 174.121L121.678 167.585L127.146 168.655Z" fill="#EFB3A9"/>
<path d="M135.58 101.171C135.9 102.339 136.345 103.468 136.907 104.54C136.743 104.726 136.531 104.864 136.295 104.94C136.058 105.015 135.805 105.026 135.563 104.97L135.58 101.171Z" fill="#DF5753"/>
<path d="M135.403 101.222C135.753 101.222 136.037 100.788 136.037 100.253C136.037 99.7183 135.753 99.2847 135.403 99.2847C135.053 99.2847 134.769 99.7183 134.769 100.253C134.769 100.788 135.053 101.222 135.403 101.222Z" fill="black"/>
<path d="M135.217 99.3184L136.502 98.9562C136.502 98.9562 135.876 99.9501 135.217 99.3184Z" fill="black"/>
<path d="M119.075 107.354C119.844 111.27 120.614 118.455 117.858 121.074C117.858 121.074 118.94 125.05 126.25 125.05C134.287 125.05 130.087 121.074 130.087 121.074C125.701 120.03 125.811 116.787 126.58 113.738L119.075 107.354Z" fill="#EFB3A9"/>
<path d="M116.937 98.4256C117.343 104.97 117.377 107.75 120.69 111.11C125.684 116.164 133.662 114.244 135.225 107.741C136.637 101.845 135.741 92.1422 129.31 89.5395C127.898 88.9599 126.361 88.7488 124.845 88.9262C123.328 89.1036 121.883 89.6636 120.644 90.5532C119.405 91.4429 118.415 92.6327 117.766 94.0103C117.118 95.3878 116.832 96.9075 116.937 98.4256Z" fill="#EFB3A9"/>
<path d="M117.588 91.0641C114.292 92.2601 109.898 91.3673 111.622 101.5C113.447 112.231 110.641 115.76 110.641 115.76C110.641 115.76 123.14 118.413 135.901 115.6C135.901 115.6 132.006 108.811 133.096 103.808C134.49 97.4907 133.392 95.1575 133.392 95.1575C133.392 95.1575 122.219 89.3795 117.588 91.0641Z" fill="black"/>
<path d="M131.532 101.837C131.536 103.081 131.893 104.299 132.563 105.349C133.459 106.714 134.516 106.191 134.777 104.743C135.014 103.471 134.837 101.222 133.696 100.346C132.555 99.47 131.549 100.329 131.532 101.837Z" fill="#EFB3A9"/>
<path d="M114.723 92.1675C113.777 89.5143 118.289 85.4293 127.839 87.1138C137.389 88.7984 137.803 96.7242 137.803 96.7242L135.876 94.4332L135.961 96.8421L126.149 98.7204L114.723 92.1675Z" fill="black"/>
<path d="M115.534 121.521C115.478 121.136 115.575 120.745 115.803 120.43C116.032 120.116 116.376 119.902 116.76 119.836C119.735 119.348 126.495 118.354 129.893 118.826C132.428 119.179 133.087 120.645 133.197 121.849C133.214 122.06 133.186 122.272 133.114 122.471C133.042 122.671 132.928 122.852 132.78 123.004C132.632 123.155 132.453 123.273 132.255 123.35C132.058 123.427 131.846 123.461 131.634 123.45L116.946 122.793C116.599 122.775 116.27 122.639 116.013 122.407C115.756 122.176 115.587 121.862 115.534 121.521Z" fill="#455A64"/>
<path opacity="0.6" d="M115.534 121.521C115.478 121.136 115.575 120.745 115.803 120.43C116.032 120.116 116.376 119.902 116.76 119.836C119.735 119.348 126.495 118.354 129.893 118.826C132.428 119.179 133.087 120.645 133.197 121.849C133.214 122.06 133.186 122.272 133.114 122.471C133.042 122.671 132.928 122.852 132.78 123.004C132.632 123.155 132.453 123.273 132.255 123.35C132.058 123.427 131.846 123.461 131.634 123.45L116.946 122.793C116.599 122.775 116.27 122.639 116.013 122.407C115.756 122.176 115.587 121.862 115.534 121.521Z" fill="black"/>
<path d="M124.028 268.667L129.479 272.44L138.597 260.118L133.146 256.353L124.028 268.667Z" fill="#EFB3A9"/>
<path d="M111.317 268.422L117.073 271.691L125.143 258.66L119.388 255.392L111.317 268.422Z" fill="#EFB3A9"/>
<path d="M138.589 260.118L133.89 266.468L128.439 262.703L133.138 256.353L138.589 260.118Z" fill="#CF6F64"/>
<path d="M119.38 255.392L125.143 258.669L120.985 265.382L115.222 262.105L119.38 255.392Z" fill="#CF6F64"/>
<path d="M128.625 162.658C128.625 162.658 149.905 189.383 145.908 214.946C142.688 235.591 124.011 263.546 124.011 263.546L115.23 259.2C121.419 246.839 126.701 234.048 131.034 220.926C132.37 216.853 132.76 212.53 132.174 208.284C131.589 204.038 130.043 199.98 127.653 196.416C116.87 180.725 99.5957 190.065 111.216 162.658H128.625Z" fill="#455A64"/>
<path opacity="0.6" d="M128.625 162.658C128.625 162.658 149.905 189.383 145.908 214.946C142.688 235.591 124.011 263.546 124.011 263.546L115.23 259.2C121.419 246.839 126.701 234.048 131.034 220.926C132.37 216.853 132.76 212.53 132.174 208.284C131.589 204.038 130.043 199.98 127.653 196.416C116.87 180.725 99.5957 190.065 111.216 162.658H128.625Z" fill="black"/>
<path opacity="0.4" d="M139.062 179.823L135.969 176.757C135.969 177.002 141.961 213.868 143.643 224.228C144.635 221.202 145.395 218.105 145.916 214.963C147.894 202.422 143.761 189.611 139.062 179.823Z" fill="black"/>
<path d="M138.124 162.658C138.124 162.658 163.748 196.248 164.475 216.387C165.075 233.232 136.586 265.87 136.586 265.87L128.304 260.53C128.304 260.53 144.978 237.351 149.178 218.416C147.556 199.651 113.244 162.658 113.244 162.658H138.124Z" fill="#455A64"/>
<path opacity="0.6" d="M138.124 162.658C138.124 162.658 163.748 196.248 164.475 216.387C165.075 233.232 136.586 265.87 136.586 265.87L128.304 260.53C128.304 260.53 144.978 237.351 149.178 218.416C147.556 199.651 113.244 162.658 113.244 162.658H138.124Z" fill="black"/>
<path d="M106.424 122.574C103.686 123.222 101.058 133.144 101.058 133.144L111.765 140.27C111.765 140.27 115.332 132.42 114.081 128.983C112.788 125.404 109.864 121.757 106.424 122.574Z" fill="#455A64"/>
<path opacity="0.2" d="M108.52 128.967L107.776 137.617L111.757 140.278C112.856 137.812 113.67 135.229 114.182 132.58L108.52 128.967Z" fill="black"/>
<path d="M141.293 122.767C141.293 122.767 144.454 123.871 138.124 162.649H111.199C111.655 151.7 111.664 144.961 106.424 122.574C110.194 121.799 114.016 121.298 117.858 121.074C121.929 120.783 126.016 120.783 130.087 121.074C135.344 121.554 141.293 122.767 141.293 122.767Z" fill="#455A64"/>
<path d="M144.031 128.967C144.64 130.651 145.282 132.462 145.958 134.205C146.634 135.949 147.277 137.743 147.961 139.512L150.032 144.801L150.556 146.124L150.826 146.781L150.953 147.109C150.953 147.168 150.953 147.168 150.953 147.16C150.798 146.943 150.596 146.764 150.361 146.638C150.027 146.441 149.65 146.329 149.263 146.309C148.941 146.299 148.621 146.359 148.325 146.486C147.936 146.663 147.936 146.739 147.944 146.73C148.015 146.674 148.077 146.609 148.13 146.536C148.598 145.924 149.003 145.267 149.339 144.574C149.736 143.799 150.116 142.974 150.496 142.14C151.24 140.455 151.925 138.712 152.609 136.951C153.294 135.191 153.945 133.414 154.578 131.62L156.505 126.246L159.759 127.088C159.117 130.929 158.288 134.669 157.291 138.476C156.809 140.371 156.243 142.249 155.601 144.144C155.28 145.096 154.925 146.039 154.519 147.008C154.096 148.059 153.576 149.069 152.964 150.023C152.739 150.345 152.491 150.649 152.22 150.933C151.789 151.398 151.265 151.768 150.682 152.02C150.165 152.241 149.605 152.344 149.043 152.323C148.413 152.299 147.799 152.117 147.26 151.792C146.623 151.396 146.095 150.849 145.722 150.2C145.595 149.981 145.485 149.762 145.409 149.602L145.248 149.282L144.927 148.625L144.285 147.32C143.44 145.568 142.595 143.799 141.859 142.022C141.124 140.245 140.347 138.442 139.62 136.631C138.893 134.82 138.242 133.009 137.626 131.055L144.031 128.967Z" fill="#EFB3A9"/>
<path d="M141.293 122.767C144.53 123.534 148.172 133.068 148.172 133.068L138.547 141.23C138.547 141.23 132.318 130.836 133.577 127.408C134.887 123.837 137.068 121.765 141.293 122.767Z" fill="#455A64"/>
<path d="M158.035 123.231L161.415 120.417L163.765 124.065L162.032 127.105C162.032 127.105 159.277 129.632 156.843 128.343C156.457 127.478 156.364 126.511 156.579 125.588C156.794 124.665 157.305 123.838 158.035 123.231Z" fill="#EFB3A9"/>
<path d="M167.517 120.426L167.263 121.344L161.914 122.237L161.39 120.417L167.517 120.426Z" fill="#EFB3A9"/>
<path d="M137.245 266.3L127.594 260.084L129.327 257.085L140.169 263.731L137.245 266.3Z" fill="#455A64"/>
<path d="M120.85 271.253C120.003 271.149 119.19 270.862 118.467 270.41C118.437 270.4 118.411 270.381 118.393 270.355C118.375 270.329 118.365 270.299 118.365 270.267C118.365 270.236 118.375 270.205 118.393 270.179C118.411 270.154 118.437 270.134 118.467 270.124C118.729 270.04 121.002 269.341 121.661 269.88C121.736 269.941 121.792 270.021 121.825 270.111C121.857 270.202 121.865 270.299 121.847 270.393C121.836 270.545 121.785 270.691 121.701 270.818C121.617 270.945 121.501 271.048 121.366 271.118C121.207 271.204 121.03 271.25 120.85 271.253ZM118.949 270.326C120.005 270.865 120.85 271.059 121.256 270.857C121.344 270.808 121.418 270.737 121.472 270.652C121.525 270.566 121.555 270.469 121.56 270.368C121.56 270.233 121.56 270.174 121.484 270.141C121.129 269.854 119.861 270.073 118.932 270.326H118.949Z" fill="black"/>
<path d="M118.526 270.469C118.482 270.469 118.439 270.45 118.408 270.419C118.395 270.395 118.389 270.369 118.389 270.343C118.389 270.316 118.395 270.29 118.408 270.267C118.408 270.191 118.957 268.364 119.819 267.951C119.929 267.901 120.049 267.875 120.17 267.875C120.291 267.875 120.41 267.901 120.521 267.951C120.639 267.988 120.742 268.064 120.812 268.166C120.883 268.269 120.917 268.391 120.909 268.515C120.85 269.273 119.304 270.318 118.594 270.495L118.526 270.469ZM120.166 268.17C120.083 268.172 120.003 268.192 119.929 268.229C119.405 268.481 118.974 269.467 118.763 270.065C119.506 269.753 120.529 268.928 120.563 268.465C120.563 268.389 120.563 268.296 120.368 268.212C120.305 268.178 120.237 268.155 120.166 268.145V268.17Z" fill="black"/>
<path d="M132.91 274.891C131.955 274.891 130.628 273.67 129.901 272.92C129.883 272.894 129.873 272.864 129.873 272.832C129.873 272.8 129.883 272.769 129.901 272.743C129.918 272.716 129.942 272.694 129.97 272.679C129.998 272.664 130.03 272.657 130.062 272.659C130.4 272.659 133.332 273.097 133.746 273.923C133.79 273.997 133.813 274.081 133.813 274.167C133.813 274.253 133.79 274.337 133.746 274.411C133.684 274.54 133.591 274.65 133.474 274.733C133.357 274.815 133.221 274.867 133.079 274.883L132.91 274.891ZM130.459 273.038C131.524 274.066 132.462 274.638 132.994 274.571C133.088 274.559 133.176 274.524 133.253 274.47C133.33 274.415 133.392 274.343 133.434 274.259C133.453 274.231 133.463 274.197 133.463 274.163C133.463 274.128 133.453 274.094 133.434 274.066C133.214 273.611 131.651 273.223 130.459 273.038Z" fill="black"/>
<path d="M130.552 272.996C130.362 273.001 130.173 272.987 129.986 272.954C129.96 272.95 129.935 272.939 129.914 272.923C129.894 272.907 129.877 272.886 129.867 272.861C129.855 272.836 129.848 272.809 129.848 272.781C129.848 272.753 129.855 272.726 129.867 272.701C129.918 272.642 131.059 271.269 132.141 271.177C132.447 271.153 132.75 271.25 132.986 271.446C133.315 271.733 133.299 271.985 133.214 272.145C133.003 272.718 131.541 272.996 130.552 272.996ZM130.332 272.684C131.279 272.735 132.792 272.423 132.986 272.011C132.986 272.011 133.053 271.876 132.834 271.691C132.746 271.615 132.644 271.558 132.534 271.523C132.423 271.488 132.307 271.476 132.191 271.488C131.463 271.691 130.814 272.111 130.332 272.693V272.684Z" fill="black"/>
<path d="M118.754 269.56L111.588 267.538C111.464 267.501 111.331 267.51 111.214 267.565C111.097 267.619 111.005 267.715 110.954 267.833L108.537 273.249C108.48 273.387 108.454 273.537 108.459 273.686C108.464 273.836 108.501 273.983 108.567 274.117C108.633 274.252 108.727 274.371 108.843 274.466C108.959 274.562 109.094 274.632 109.238 274.672C111.774 275.329 112.991 275.514 116.143 276.416C118.087 276.955 120.859 277.957 123.538 278.715C126.217 279.473 127.112 276.87 126.073 276.315C121.374 273.838 121.002 272.103 119.718 270.25C119.488 269.915 119.147 269.67 118.754 269.56Z" fill="#455A64"/>
<path d="M130.096 271.935L123.977 267.723C123.873 267.648 123.745 267.613 123.618 267.626C123.49 267.638 123.371 267.697 123.284 267.791L119.228 272.137C119.129 272.249 119.055 272.381 119.011 272.524C118.968 272.667 118.955 272.818 118.974 272.966C118.993 273.114 119.044 273.257 119.123 273.384C119.201 273.511 119.306 273.62 119.43 273.704C121.585 275.144 122.701 275.725 125.397 277.586C127.087 278.732 130.358 281.276 132.639 282.859C134.921 284.443 136.62 282.27 135.809 281.41C132.175 277.544 131.38 275.119 130.78 272.92C130.676 272.521 130.433 272.172 130.096 271.935Z" fill="#455A64"/>
<path d="M125.135 264.102L114.106 258.635L115.247 255.654L127.028 261.415L125.135 264.102Z" fill="#455A64"/>
<path d="M110.793 161.074L109.864 163.5C109.771 163.685 109.991 163.879 110.303 163.879H138.259C138.504 163.879 138.707 163.761 138.724 163.609L138.961 161.2C138.961 161.04 138.766 160.897 138.504 160.897H111.233C111.151 160.89 111.068 160.902 110.992 160.932C110.915 160.963 110.847 161.012 110.793 161.074Z" fill="#455A64"/>
<path opacity="0.4" d="M110.793 161.074L109.864 163.5C109.771 163.685 109.991 163.879 110.303 163.879H138.259C138.504 163.879 138.707 163.761 138.724 163.609L138.961 161.2C138.961 161.04 138.766 160.897 138.504 160.897H111.233C111.151 160.89 111.068 160.902 110.992 160.932C110.915 160.963 110.847 161.012 110.793 161.074Z" fill="white"/>
<path d="M115.196 164.115H114.461C114.317 164.115 114.208 164.039 114.216 163.946L114.563 160.822C114.563 160.737 114.698 160.661 114.841 160.661H115.577C115.72 160.661 115.83 160.737 115.822 160.822L115.475 163.946C115.467 164.039 115.34 164.115 115.196 164.115Z" fill="#455A64"/>
<path d="M132.437 164.115H131.71C131.566 164.115 131.456 164.039 131.465 163.946L131.803 160.822C131.803 160.737 131.946 160.661 132.09 160.661H132.817C132.961 160.661 133.079 160.737 133.062 160.822L132.724 163.946C132.682 164.039 132.589 164.115 132.437 164.115Z" fill="#455A64"/>
<g style="mix-blend-mode:multiply">
<path d="M114.554 306.755C127.058 306.755 137.194 306.023 137.194 305.121C137.194 304.218 127.058 303.487 114.554 303.487C102.05 303.487 91.9137 304.218 91.9137 305.121C91.9137 306.023 102.05 306.755 114.554 306.755Z" fill="#F5F5F5"/>
</g>
<path d="M128.346 302.813C124.34 301.65 119.895 300.159 117.208 298.601C117.132 298.551 117.047 298.525 116.971 298.483V280.408H125.076C125.691 280.372 126.269 280.103 126.692 279.656C127.114 279.209 127.35 278.618 127.35 278.003C127.35 277.389 127.114 276.798 126.692 276.351C126.269 275.904 125.691 275.635 125.076 275.599H117.013V193.207H112.146V275.599H104.092C103.763 275.579 103.433 275.627 103.124 275.739C102.814 275.851 102.531 276.025 102.291 276.25C102.051 276.476 101.86 276.747 101.73 277.049C101.599 277.35 101.532 277.675 101.532 278.003C101.532 278.332 101.599 278.657 101.73 278.958C101.86 279.259 102.051 279.531 102.291 279.756C102.531 279.982 102.814 280.155 103.124 280.268C103.433 280.38 103.763 280.427 104.092 280.408H112.146V298.458C112.07 298.458 111.993 298.525 111.917 298.576C109.188 300.159 104.776 301.65 100.77 302.787C100.5 302.869 100.267 303.044 100.115 303.282C99.9634 303.519 99.9017 303.803 99.9415 304.082C99.9814 304.361 100.12 304.617 100.333 304.802C100.545 304.988 100.817 305.092 101.1 305.095H128.017C128.287 305.077 128.542 304.967 128.741 304.783C128.939 304.6 129.069 304.354 129.107 304.087C129.146 303.82 129.091 303.547 128.953 303.316C128.814 303.084 128.6 302.906 128.346 302.813Z" fill="#E0E0E0"/>
<path d="M129.589 184.818H99.5366C97.1189 184.818 95.1589 186.771 95.1589 189.181V198.084C95.1589 200.493 97.1189 202.447 99.5366 202.447H129.589C132.006 202.447 133.966 200.493 133.966 198.084V189.181C133.966 186.771 132.006 184.818 129.589 184.818Z" fill="#455A64"/>
<path d="M99.2577 202.455V203.988C99.2577 205.252 100.635 206.279 102.325 206.279H126.834C128.524 206.279 129.901 205.252 129.901 203.988V202.455H99.2577Z" fill="#455A64"/>
<path opacity="0.3" d="M99.2577 202.455V203.988C99.2577 205.252 100.635 206.279 102.325 206.279H126.834C128.524 206.279 129.901 205.252 129.901 203.988V202.455H99.2577Z" fill="white"/>
</svg>
