<svg width="410" height="418" viewBox="0 0 410 418" fill="none" xmlns="http://www.w3.org/2000/svg">
<path d="M349.49 417.091C349.49 417.231 282.847 417.35 200.667 417.35C118.486 417.35 51.8151 417.231 51.8151 417.091C51.8151 416.952 118.448 416.833 200.667 416.833C282.886 416.833 349.49 416.962 349.49 417.091Z" fill="#003566"/>
<path d="M284.556 295.442C269.728 284.72 266.369 264.816 266.954 246.92C267.05 243.939 266.734 240.779 268.106 238.165C269.478 235.552 272.684 233.753 275.266 235.005C277.406 236.049 278.337 238.632 279.536 240.769C281.137 243.614 283.483 245.933 286.302 247.456C288.135 248.45 290.41 249.046 292.224 248.013C294.719 246.592 295.007 243.044 294.988 240.063C294.988 234.518 294.956 228.98 294.892 223.448C294.719 220.478 295.011 217.498 295.755 214.624C296.648 211.802 298.635 209.189 301.351 208.394C304.067 207.599 307.454 209.239 308.069 212.14C308.174 213.369 308.203 214.604 308.155 215.837C308.232 217.079 308.788 218.44 309.911 218.818C311.034 219.195 312.205 218.331 313.069 217.456C316.025 214.475 318.04 210.59 319.911 206.754C321.783 202.919 323.616 198.974 326.303 195.704C328.99 192.435 332.704 189.841 336.86 189.593C341.016 189.345 345.344 191.988 346.38 196.161C347.417 200.335 345.066 204.598 342.542 207.986C338.733 213.016 334.243 217.451 329.211 221.153C328.229 221.708 327.445 222.576 326.975 223.627C326.351 225.615 328.165 227.602 330.056 228.228C332.196 228.964 334.518 228.735 336.774 229.013C339.029 229.291 341.428 230.305 342.282 232.491C343.453 235.532 340.996 238.712 338.588 240.799C333.751 244.972 328.258 248.256 322.349 250.507C320.238 251.302 318.021 252.008 316.313 253.538C314.604 255.068 313.587 257.741 314.614 259.838C315.641 261.935 318.28 262.6 320.497 262.173C322.714 261.746 324.681 260.514 326.793 259.689C330.737 258.149 335.824 258.427 338.309 261.954C339.079 263.17 339.567 264.553 339.733 265.996C339.9 267.439 339.741 268.903 339.269 270.272C338.308 272.996 336.83 275.493 334.921 277.615C328.636 285.391 320.469 291.3 311.255 294.737C302.109 298.016 293.635 298.91 284.546 295.462" fill="white"/>
<path d="M342.158 192.047C342.158 192.047 342.071 192.147 341.879 192.326L341.025 193.111C340.277 193.806 339.173 194.82 337.781 196.161C333.836 199.955 330.172 204.05 326.821 208.414C324.681 211.166 322.464 214.287 320.103 217.675C317.743 221.064 315.305 224.72 312.886 228.606C310.308 232.703 307.947 236.942 305.813 241.305C304.7 243.581 303.721 245.956 302.713 248.381L299.738 255.784C295.817 265.109 292.401 274.653 289.508 284.372C287.177 292.325 285.571 300.486 284.709 308.748C284.151 314.324 284.061 319.94 284.44 325.532C284.594 327.519 284.738 329.039 284.872 330.073C284.93 330.57 284.968 330.967 285.007 331.255V331.663C284.965 331.534 284.936 331.4 284.92 331.265C284.872 330.977 284.815 330.59 284.738 330.093C284.565 329.099 284.383 327.529 284.21 325.542C283.747 319.939 283.779 314.305 284.306 308.708C285.114 300.411 286.685 292.212 288.999 284.223C291.868 274.477 295.274 264.908 299.201 255.565L302.253 248.192C303.26 245.777 304.249 243.382 305.372 241.097C307.52 236.721 309.901 232.471 312.502 228.367C314.959 224.393 317.435 220.795 319.768 217.437C322.1 214.078 324.355 210.938 326.486 208.195C329.87 203.843 333.583 199.776 337.589 196.032C339.01 194.711 340.142 193.717 340.91 193.051L341.803 192.306C341.912 192.207 342.031 192.121 342.158 192.047Z" fill="#003566"/>
<path d="M305.497 241.077C305.361 240.667 305.268 240.244 305.218 239.815C305.065 238.99 304.892 237.827 304.69 236.317C304.278 233.336 303.855 229.252 303.404 224.73C302.953 220.209 302.445 216.115 302.022 213.164C301.802 211.693 301.61 210.51 301.475 209.686C301.371 209.264 301.316 208.83 301.312 208.394C301.477 208.792 301.597 209.209 301.667 209.636C301.878 210.451 302.118 211.623 302.387 213.104C302.934 216.085 303.472 220.139 303.923 224.671C304.374 229.202 304.758 233.177 305.055 236.267C305.199 237.658 305.324 238.841 305.42 239.785C305.494 240.211 305.52 240.645 305.497 241.077Z" fill="#003566"/>
<path d="M342.426 233.942C341.959 234.047 341.484 234.107 341.006 234.121C340.046 234.21 338.684 234.33 336.994 234.528C333.616 234.906 328.971 235.601 323.875 236.595C318.779 237.589 314.201 238.712 310.909 239.576C309.268 240.014 307.944 240.411 307.071 240.679C306.604 240.851 306.122 240.971 305.631 241.037C306.074 240.806 306.537 240.617 307.013 240.471C307.915 240.143 309.22 239.686 310.852 239.199C314.124 238.205 318.702 237.022 323.818 236.009C328.151 235.151 332.523 234.521 336.918 234.121C338.616 233.972 339.989 233.912 340.948 233.892C341.442 233.858 341.937 233.874 342.426 233.942Z" fill="#003566"/>
<path d="M289.469 283.528C289.367 283.384 289.283 283.227 289.22 283.061L288.586 281.679C288.039 280.477 287.3 278.698 286.417 276.522C284.632 272.15 282.358 266.029 279.939 259.232C277.521 252.435 275.294 246.314 273.605 241.892C272.78 239.745 272.099 237.986 271.59 236.675L271.052 235.254C270.978 235.09 270.926 234.916 270.899 234.737C271.001 234.881 271.085 235.038 271.148 235.204L271.782 236.585C272.319 237.788 273.068 239.566 273.951 241.743C275.736 246.115 278.01 252.236 280.429 259.033C282.847 265.83 285.074 271.951 286.763 276.373C287.588 278.519 288.27 280.278 288.769 281.59C288.989 282.156 289.172 282.584 289.316 283.011C289.39 283.175 289.442 283.349 289.469 283.528Z" fill="#003566"/>
<path d="M338.492 267.161C338.338 267.253 338.173 267.323 338.002 267.37L336.582 267.867L331.332 269.626C326.898 271.116 320.775 273.243 314.057 275.588C307.339 277.933 301.187 280.02 296.725 281.411C294.498 282.117 292.684 282.653 291.427 283.011L289.978 283.399C289.809 283.454 289.636 283.491 289.46 283.508C289.613 283.417 289.778 283.346 289.949 283.299L291.37 282.802L296.619 281.044C301.053 279.553 307.176 277.426 313.894 275.081C320.612 272.736 326.754 270.649 331.217 269.258C333.453 268.553 335.257 268.016 336.524 267.658L337.973 267.271C338.142 267.215 338.316 267.179 338.492 267.161Z" fill="#003566"/>
<path d="M318.491 26.1189L313.549 27.9473L311.428 21.2597C307.531 8.92782 295.112 2.37932 283.701 6.54293C272.29 10.7066 266.215 24.2309 270.112 36.5627L272.233 43.2503L267.271 45.0887C265.379 45.8485 263.843 47.3341 262.981 49.2365C262.12 51.139 261.999 53.312 262.645 55.304L276.398 98.8182C276.683 99.8043 277.157 100.721 277.792 101.514C278.426 102.306 279.208 102.959 280.091 103.432C280.973 103.906 281.939 104.191 282.93 104.271C283.921 104.351 284.918 104.223 285.861 103.896L337.081 84.9262C338.998 84.1677 340.556 82.669 341.428 80.7453C342.299 78.8217 342.417 76.6229 341.755 74.6116L327.992 31.0973C327.699 30.114 327.218 29.2019 326.577 28.4153C325.937 27.6288 325.149 26.9839 324.263 26.5193C323.376 26.0547 322.408 25.7797 321.416 25.711C320.425 25.6422 319.43 25.7809 318.491 26.1189ZM279.45 33.0748C278.399 29.8683 278.588 26.3653 279.976 23.2996C281.364 20.2339 283.845 17.8434 286.897 16.629C288.405 16.095 290 15.8809 291.589 15.9994C293.178 16.1179 294.728 16.5666 296.146 17.3187C297.564 18.0708 298.821 19.111 299.842 20.3771C300.863 21.6432 301.628 23.1093 302.09 24.688L304.201 31.3756L281.561 39.7624L279.45 33.0748ZM308.241 71.6901L311.754 82.7997C311.818 83.0225 311.798 83.2624 311.696 83.4697C311.594 83.6769 311.419 83.8356 311.207 83.9127L306.284 85.7311C306.088 85.7874 305.878 85.7629 305.699 85.6629C305.52 85.5629 305.386 85.395 305.324 85.1945L301.782 74.1346C299.83 74.0245 297.956 73.2993 296.413 72.0561C294.869 70.813 293.729 69.1112 293.145 67.1787C292.31 64.6238 292.463 61.8337 293.57 59.3924C294.677 56.9511 296.654 55.0481 299.086 54.0817C300.286 53.6569 301.557 53.4868 302.823 53.5814C304.089 53.6761 305.323 54.0336 306.452 54.6326C307.581 55.2316 308.583 56.0599 309.396 57.0681C310.21 58.0764 310.819 59.2438 311.188 60.501C311.805 62.4641 311.856 64.5711 311.335 66.5638C310.813 68.5565 309.741 70.3484 308.251 71.7199L308.241 71.6901Z" fill="white"/>
<path d="M313.328 27.8281C313.328 27.9672 304.163 31.5346 292.761 35.7777C281.36 40.0208 272.06 43.4292 272.012 43.3298C271.964 43.2305 281.177 39.6333 292.588 35.3802C303.999 31.1272 313.28 27.6989 313.328 27.8281Z" fill="#003566"/>
<path d="M324.211 29.6565C324.253 29.7427 324.289 29.8325 324.317 29.9248C324.393 30.1235 324.48 30.3819 324.595 30.6999C324.844 31.4253 325.19 32.4289 325.622 33.681L329.307 44.7906C330.843 49.5007 332.676 55.0854 334.71 61.2861C335.67 64.3964 336.803 67.6358 337.858 71.0442C338.423 72.8006 338.667 74.6507 338.578 76.4997C338.497 77.4613 338.232 78.3967 337.801 79.2522C337.339 80.1049 336.723 80.8573 335.987 81.4682C334.504 82.5888 332.858 83.4576 331.111 84.0419L326.169 85.8802L316.812 89.3482L300.967 95.1912L290.266 99.0865L287.387 100.08L286.619 100.339C286.537 100.376 286.449 100.4 286.36 100.408C286.36 100.408 286.437 100.408 286.6 100.289L287.348 99.9809L290.228 98.858L300.871 94.8037L316.687 88.8415L326.025 85.3436L330.967 83.4953C332.665 82.9349 334.263 82.0925 335.699 81.0011C336.384 80.4343 336.958 79.7359 337.388 78.9442C337.794 78.153 338.039 77.2837 338.108 76.3904C338.196 74.6088 337.962 72.8259 337.417 71.1337C336.38 67.7551 335.286 64.4858 334.298 61.3755C332.301 55.1649 330.459 49.5604 329 44.8502C327.541 40.1401 326.313 36.3541 325.468 33.6909C325.065 32.3892 324.758 31.3756 324.509 30.6403L324.278 29.8453C324.249 29.7851 324.227 29.7218 324.211 29.6565Z" fill="#003566"/>
<path d="M297.185 15.9533C297.185 15.9533 296.677 15.695 295.736 15.2975C294.396 14.7641 292.978 14.4685 291.542 14.423C289.415 14.3475 287.297 14.7615 285.343 15.6353C282.966 16.7234 280.933 18.4833 279.479 20.7132C278.014 22.9366 277.229 25.5641 277.223 28.2554C277.243 30.4611 277.567 32.6527 278.183 34.7641C278.682 36.5727 279.2 38.0135 279.546 39.0172C279.75 39.5269 279.917 40.0517 280.045 40.5872C279.772 40.1106 279.544 39.6082 279.364 39.0867C278.97 38.093 278.404 36.682 277.847 34.8635C277.164 32.7299 276.792 30.5026 276.744 28.2554C276.718 25.4625 277.522 22.7289 279.047 20.425C280.552 18.1137 282.668 16.2994 285.141 15.1981C287.157 14.3195 289.34 13.9319 291.523 14.0653C292.99 14.1427 294.43 14.4962 295.775 15.1087C296.134 15.2803 296.481 15.4796 296.811 15.7049C296.948 15.767 297.074 15.8508 297.185 15.9533Z" fill="#003566"/>
<path d="M297.627 54.8369C297.78 54.7408 297.941 54.6577 298.107 54.5884C298.587 54.364 299.085 54.1812 299.594 54.0419C300.403 53.7947 301.238 53.6479 302.08 53.6047C303.226 53.5409 304.372 53.7201 305.449 54.1313C307.905 55.0257 310.161 57.6192 311.274 61.0873C311.808 62.9484 311.808 64.93 311.274 66.7911C310.682 68.8111 309.621 70.6501 308.184 72.1472L308.241 71.8789C309.518 75.5059 310.909 79.441 312.349 83.545L312.435 83.7934L312.195 83.8828L309.998 84.638L305.199 86.2975L304.959 86.377L304.882 86.1286C303.568 82.0147 302.128 78.179 301.043 74.4128L301.255 74.5817C299.378 74.4204 297.59 73.6912 296.111 72.485C294.772 71.4179 293.675 70.0615 292.896 68.5102C292.192 67.1346 291.842 65.5947 291.878 64.0386C291.923 62.4481 292.306 60.8875 293.001 59.4684C293.697 58.0494 294.686 56.8072 295.899 55.8306C296.399 55.4108 296.959 55.0755 297.56 54.8369C297.018 55.1699 296.492 55.5314 295.986 55.92C294.653 57.0875 293.632 58.5895 293.02 60.2824C292.495 61.5589 292.25 62.94 292.301 64.3265C292.352 65.713 292.7 67.0705 293.318 68.3015C294.085 69.7939 295.155 71.0959 296.456 72.1174C297.867 73.2639 299.573 73.9551 301.36 74.1048H301.523L301.571 74.2538C302.627 77.9504 304.076 81.8159 305.41 85.9497L305.093 85.7907L309.892 84.1312L312.08 83.3661L311.927 83.7039C310.497 79.6 309.115 75.6549 307.848 72.0279V71.8789L307.963 71.7596C309.358 70.3246 310.399 68.5623 310.996 66.6222C311.505 64.8419 311.505 62.947 310.996 61.1668C309.95 57.8279 307.79 55.294 305.449 54.3996C304.412 53.9858 303.305 53.7931 302.195 53.8332C301.366 53.8529 300.542 53.9696 299.738 54.181C298.308 54.5487 297.636 54.8866 297.627 54.8369Z" fill="#003566"/>
<path d="M267.962 341.759L172.096 341.302C166.56 341.27 161.262 338.965 157.366 334.892C153.471 330.819 151.295 325.312 151.318 319.579L152.336 70.7461C152.347 67.9062 152.899 65.0964 153.959 62.4773C155.02 59.8583 156.569 57.4814 158.517 55.4825C160.466 53.4836 162.775 51.9018 165.314 50.8277C167.854 49.7536 170.572 49.2081 173.315 49.2225L269.171 49.6796C274.708 49.7085 280.006 52.0114 283.904 56.0824C287.801 60.1534 289.979 65.6597 289.959 71.392L288.941 320.215C288.93 323.056 288.379 325.867 287.318 328.487C286.258 331.107 284.709 333.485 282.761 335.486C280.813 337.486 278.503 339.07 275.964 340.146C273.425 341.223 270.706 341.771 267.962 341.759Z" fill="#455A64"/>
<path d="M269.027 58.2354H250.447C249.841 58.247 249.243 58.3822 248.687 58.6332C248.131 58.8843 247.629 59.2462 247.208 59.6983C246.788 60.1505 246.457 60.6841 246.236 61.2685C246.014 61.8529 245.906 62.4768 245.917 63.1045V66.5925C245.929 67.2197 245.821 67.8431 245.599 68.427C245.378 69.0108 245.047 69.5437 244.626 69.9951C244.205 70.4465 243.703 70.8074 243.147 71.0574C242.591 71.3073 241.993 71.4413 241.388 71.4517L205.168 71.2827C203.943 71.2489 202.78 70.7129 201.937 69.7925C201.093 68.8721 200.636 67.6426 200.667 66.3738V62.8859C200.698 61.6189 200.243 60.3908 199.401 59.4707C198.559 58.5505 197.399 58.0134 196.175 57.977H189.64L173.373 57.8975C169.503 57.8737 165.783 59.4383 163.025 62.2487C160.268 65.0592 158.698 68.8864 158.66 72.8925L157.7 315.773C157.692 317.761 158.061 319.731 158.787 321.57C159.514 323.41 160.583 325.084 161.934 326.495C163.285 327.907 164.891 329.03 166.661 329.799C168.431 330.568 170.33 330.968 172.25 330.977L267.914 331.434C269.835 331.443 271.739 331.061 273.516 330.308C275.294 329.556 276.912 328.448 278.276 327.048C279.64 325.648 280.725 323.984 281.468 322.15C282.212 320.316 282.599 318.349 282.607 316.36L283.567 73.4788C283.59 69.4614 282.071 65.599 279.345 62.7406C276.619 59.8821 272.907 58.2617 269.027 58.2354Z" fill="white"/>
<path d="M256.158 299.03L185.024 298.712C184.285 298.712 183.69 297.877 183.699 296.863L183.776 277.595C183.776 276.602 184.381 275.747 185.12 275.747L256.254 276.085C256.663 276.158 257.029 276.392 257.276 276.739C257.523 277.085 257.631 277.516 257.578 277.943L257.511 297.191C257.511 298.215 256.897 299.04 256.158 299.03Z" fill="black"/>
<path d="M206.829 289.521C206.406 289.521 206 289.453 205.61 289.317C205.225 289.176 204.927 288.998 204.715 288.781L204.951 288.317C205.152 288.512 205.42 288.678 205.756 288.813C206.097 288.943 206.455 289.008 206.829 289.008C207.187 289.008 207.477 288.965 207.699 288.878C207.927 288.786 208.092 288.664 208.195 288.512C208.304 288.361 208.358 288.193 208.358 288.008C208.358 287.786 208.293 287.607 208.163 287.472C208.038 287.336 207.873 287.23 207.667 287.154C207.461 287.073 207.233 287.003 206.984 286.943C206.734 286.883 206.485 286.821 206.236 286.756C205.986 286.686 205.756 286.593 205.545 286.48C205.339 286.366 205.171 286.217 205.04 286.032C204.916 285.843 204.853 285.596 204.853 285.292C204.853 285.01 204.927 284.753 205.073 284.52C205.225 284.281 205.455 284.092 205.764 283.951C206.073 283.804 206.469 283.731 206.951 283.731C207.271 283.731 207.588 283.777 207.903 283.869C208.217 283.956 208.488 284.078 208.716 284.235L208.512 284.715C208.269 284.552 208.008 284.433 207.732 284.357C207.461 284.281 207.198 284.243 206.943 284.243C206.602 284.243 206.32 284.29 206.097 284.382C205.875 284.474 205.71 284.599 205.601 284.756C205.498 284.908 205.447 285.081 205.447 285.276C205.447 285.498 205.509 285.677 205.634 285.813C205.764 285.948 205.932 286.054 206.138 286.13C206.35 286.206 206.58 286.274 206.829 286.333C207.079 286.393 207.325 286.458 207.569 286.528C207.819 286.599 208.046 286.691 208.252 286.805C208.464 286.913 208.632 287.06 208.756 287.244C208.887 287.428 208.952 287.669 208.952 287.968C208.952 288.244 208.876 288.502 208.724 288.74C208.572 288.973 208.339 289.163 208.025 289.309C207.716 289.45 207.317 289.521 206.829 289.521ZM210.263 289.472V283.78H210.864V289.472H210.263ZM212.716 289.472V283.78H213.212L217.14 288.724H216.88V283.78H217.473V289.472H216.977L213.058 284.528H213.318V289.472H212.716ZM221.827 289.521C221.394 289.521 220.992 289.45 220.624 289.309C220.261 289.163 219.943 288.96 219.672 288.699C219.407 288.439 219.198 288.133 219.046 287.781C218.9 287.428 218.827 287.043 218.827 286.626C218.827 286.209 218.9 285.824 219.046 285.471C219.198 285.119 219.41 284.813 219.681 284.552C219.952 284.292 220.269 284.092 220.632 283.951C221.001 283.804 221.402 283.731 221.835 283.731C222.269 283.731 222.665 283.799 223.023 283.934C223.386 284.07 223.695 284.276 223.949 284.552L223.575 284.935C223.337 284.696 223.074 284.525 222.787 284.422C222.499 284.319 222.19 284.268 221.86 284.268C221.507 284.268 221.182 284.327 220.884 284.447C220.591 284.561 220.334 284.726 220.112 284.943C219.895 285.154 219.724 285.404 219.599 285.691C219.48 285.973 219.42 286.284 219.42 286.626C219.42 286.962 219.48 287.274 219.599 287.561C219.724 287.848 219.895 288.1 220.112 288.317C220.334 288.529 220.591 288.694 220.884 288.813C221.182 288.927 221.505 288.984 221.852 288.984C222.177 288.984 222.483 288.935 222.77 288.838C223.063 288.74 223.332 288.575 223.575 288.342L223.917 288.797C223.646 289.035 223.329 289.217 222.966 289.342C222.602 289.461 222.223 289.521 221.827 289.521ZM223.34 288.724V286.626H223.917V288.797L223.34 288.724ZM230.041 289.521C229.315 289.521 228.743 289.312 228.325 288.895C227.908 288.477 227.699 287.859 227.699 287.041V283.78H228.301V287.016C228.301 287.688 228.453 288.184 228.756 288.504C229.06 288.824 229.488 288.984 230.041 288.984C230.599 288.984 231.03 288.824 231.334 288.504C231.638 288.184 231.789 287.688 231.789 287.016V283.78H232.375V287.041C232.375 287.859 232.166 288.477 231.749 288.895C231.337 289.312 230.767 289.521 230.041 289.521ZM234.188 289.472V283.78H236.318C236.801 283.78 237.216 283.859 237.562 284.016C237.909 284.168 238.175 284.39 238.359 284.683C238.549 284.97 238.644 285.319 238.644 285.731C238.644 286.133 238.549 286.48 238.359 286.772C238.175 287.06 237.909 287.282 237.562 287.439C237.216 287.596 236.801 287.675 236.318 287.675H234.521L234.79 287.39V289.472H234.188ZM234.79 287.439L234.521 287.146H236.302C236.871 287.146 237.302 287.024 237.595 286.78C237.893 286.531 238.042 286.181 238.042 285.731C238.042 285.276 237.893 284.924 237.595 284.674C237.302 284.425 236.871 284.3 236.302 284.3H234.521L234.79 284.016V287.439Z" fill="#E8E8E3"/>
<path d="M199.212 129.633L174.528 129.517L174.508 134.207L199.191 134.323L199.212 129.633Z" fill="black"/>
<path opacity="0.1" d="M199.212 129.633L174.528 129.517L174.508 134.207L199.191 134.323L199.212 129.633Z" fill="black"/>
<path d="M271.571 158.431C271.764 158.41 271.955 158.363 272.137 158.291C272.402 158.184 272.633 158.001 272.803 157.764C272.973 157.526 273.075 157.244 273.097 156.95C273.097 155.37 273.097 153.065 273.097 150.103C273.097 148.623 273.097 146.963 273.097 145.135C273.097 144.688 273.097 144.221 273.097 143.754C273.159 143.3 273.064 142.839 272.828 142.452C272.696 142.266 272.524 142.115 272.326 142.01C272.128 141.904 271.908 141.848 271.686 141.846H270.189H256.321L176.05 141.538C175.845 141.534 175.641 141.582 175.458 141.677C175.274 141.772 175.115 141.912 174.994 142.084C174.763 142.473 174.674 142.935 174.745 143.386C174.745 144.38 174.745 145.373 174.745 146.367C174.745 148.354 174.745 150.342 174.745 152.329C174.745 153.323 174.745 154.317 174.745 155.31C174.705 155.773 174.705 156.239 174.745 156.701C174.795 156.9 174.889 157.084 175.019 157.239C175.149 157.394 175.311 157.516 175.494 157.596C175.683 157.674 175.885 157.711 176.089 157.705H180.974L202.289 157.824L238.374 158.053L262.703 158.252L269.315 158.331H271.033C271.427 158.331 271.619 158.331 271.619 158.331H271.033H269.315H262.703H238.374L202.289 158.212L180.974 158.122H176.089C175.82 158.134 175.552 158.086 175.302 157.983C175.049 157.872 174.824 157.702 174.645 157.486C174.465 157.271 174.335 157.016 174.265 156.741C174.21 156.48 174.19 156.213 174.208 155.946V155.211C174.208 154.217 174.208 153.224 174.208 152.23C174.208 150.242 174.208 148.255 174.208 146.268C174.208 145.274 174.208 144.28 174.208 143.286C174.189 143.022 174.189 142.756 174.208 142.492C174.243 142.199 174.353 141.922 174.524 141.687C174.69 141.447 174.909 141.252 175.163 141.119C175.417 140.985 175.698 140.918 175.983 140.921L256.254 141.379L270.121 141.478H271.619C271.882 141.478 272.142 141.544 272.376 141.67C272.61 141.797 272.811 141.98 272.962 142.203C273.233 142.635 273.342 143.155 273.269 143.664C273.269 144.131 273.269 144.598 273.269 145.045C273.269 146.854 273.269 148.513 273.269 150.014C273.269 152.995 273.202 155.28 273.183 156.87C273.159 157.176 273.052 157.468 272.874 157.713C272.695 157.958 272.453 158.145 272.175 158.252C271.994 158.368 271.784 158.43 271.571 158.431Z" fill="#E0E0E0"/>
<path d="M227.088 146.526H181.943V150.908H227.088V146.526Z" fill="black"/>
<path opacity="0.2" d="M227.088 146.526H181.943V150.908H227.088V146.526Z" fill="white"/>
<path d="M199.044 172.421L174.36 172.305L174.34 176.995L199.023 177.111L199.044 172.421Z" fill="black"/>
<path opacity="0.1" d="M199.044 172.421L174.36 172.305L174.34 176.995L199.023 177.111L199.044 172.421Z" fill="black"/>
<path d="M270.947 201.219C271.141 201.195 271.333 201.158 271.523 201.11C271.791 201.022 272.037 200.875 272.246 200.679C272.455 200.484 272.62 200.245 272.732 199.977C272.883 199.576 272.942 199.144 272.905 198.715C272.905 198.238 272.905 197.722 272.905 197.145C272.905 195.992 272.905 194.681 272.905 193.17V186.86C272.95 186.404 272.853 185.944 272.626 185.549C272.39 185.144 272.017 184.843 271.58 184.704C271.102 184.616 270.615 184.589 270.131 184.625H256.321L176.329 184.316C175.898 184.318 175.483 184.48 175.16 184.775C174.837 185.069 174.628 185.475 174.572 185.916C174.572 186.86 174.572 187.904 174.572 188.897C174.572 190.885 174.572 192.872 174.572 194.86C174.572 195.853 174.572 196.847 174.572 197.841C174.536 198.305 174.556 198.772 174.63 199.232C174.75 199.635 174.996 199.985 175.33 200.226C175.685 200.459 176.101 200.57 176.52 200.544H177.854H180.628L201.867 200.653L237.827 200.882L262.069 201.08L268.663 201.16H262.069H237.827L201.847 201.12L180.609 201.041H176.434C175.915 201.072 175.4 200.929 174.966 200.633C174.529 200.32 174.21 199.86 174.064 199.331C173.978 198.826 173.952 198.312 173.987 197.801C173.987 196.807 173.987 195.814 173.987 194.82C173.987 192.833 173.987 190.845 173.987 188.858C173.987 187.864 173.987 186.87 173.987 185.877C174.057 185.308 174.324 184.786 174.74 184.407C175.155 184.029 175.689 183.82 176.242 183.82L256.234 184.277L270.045 184.386C270.559 184.353 271.075 184.39 271.58 184.495C272.079 184.664 272.499 185.018 272.761 185.489C273.009 185.927 273.117 186.435 273.068 186.94C273.068 187.407 273.068 187.864 273.068 188.321C273.068 190.12 273.068 191.769 273.068 193.29C273.068 194.81 273.068 196.092 273.068 197.264C273.068 197.831 273.068 198.358 273.068 198.844C273.103 199.289 273.034 199.735 272.866 200.146C272.742 200.42 272.561 200.664 272.338 200.859C272.114 201.055 271.853 201.198 271.571 201.279C271.361 201.297 271.15 201.277 270.947 201.219Z" fill="#E0E0E0"/>
<path d="M198.858 217.067L174.174 216.951L174.154 221.641L198.837 221.757L198.858 217.067Z" fill="black"/>
<path opacity="0.1" d="M198.858 217.067L174.174 216.951L174.154 221.641L198.837 221.757L198.858 217.067Z" fill="black"/>
<path d="M270.755 245.847C270.949 245.823 271.141 245.786 271.331 245.737C271.598 245.649 271.843 245.504 272.052 245.31C272.26 245.117 272.427 244.88 272.54 244.614C272.69 244.213 272.75 243.781 272.713 243.352C272.713 242.865 272.713 242.359 272.713 241.772C272.713 240.63 272.713 239.308 272.713 237.798V231.488C272.759 231.031 272.661 230.571 272.434 230.176C272.192 229.778 271.821 229.482 271.388 229.341C270.911 229.249 270.424 229.219 269.939 229.252H256.129L176.137 228.944C175.706 228.945 175.291 229.108 174.968 229.402C174.645 229.696 174.436 230.102 174.38 230.544C174.38 231.537 174.38 232.531 174.38 233.525C174.38 235.512 174.38 237.499 174.38 239.487C174.38 240.481 174.38 241.474 174.38 242.468C174.345 242.929 174.364 243.393 174.438 243.849C174.553 244.255 174.801 244.606 175.138 244.843C175.491 245.081 175.909 245.193 176.329 245.161H180.503L201.742 245.28L237.702 245.509L261.945 245.707L268.538 245.787H261.945H237.702L201.742 245.678L180.503 245.588H176.329C175.809 245.624 175.293 245.481 174.86 245.181C174.423 244.868 174.105 244.408 173.958 243.879C173.872 243.374 173.846 242.86 173.881 242.349C173.881 241.355 173.881 240.361 173.881 239.368C173.881 237.38 173.881 235.393 173.881 233.405C173.881 232.412 173.881 231.418 173.881 230.375C173.949 229.807 174.215 229.285 174.628 228.906C175.042 228.527 175.575 228.318 176.127 228.318L256.119 228.775L269.93 228.884C270.444 228.851 270.96 228.888 271.465 228.993C271.964 229.162 272.384 229.516 272.646 229.987C272.894 230.425 273.001 230.933 272.953 231.438C272.953 231.905 272.953 232.372 272.953 232.819C272.953 234.618 272.953 236.267 272.953 237.788C272.953 239.308 272.953 240.59 272.953 241.762C272.953 242.329 272.953 242.856 272.953 243.342C272.989 243.787 272.92 244.234 272.751 244.644C272.627 244.918 272.446 245.161 272.223 245.357C271.999 245.552 271.737 245.696 271.456 245.777C271.23 245.857 270.99 245.881 270.755 245.847Z" fill="#E0E0E0"/>
<path d="M226.124 190.554L180.98 190.342L180.96 194.724L226.105 194.936L226.124 190.554Z" fill="black"/>
<path opacity="0.2" d="M226.124 190.554L180.98 190.342L180.96 194.724L226.105 194.936L226.124 190.554Z" fill="white"/>
<path d="M185.062 237.738C185.034 238.138 184.893 238.52 184.656 238.837C184.42 239.155 184.099 239.394 183.733 239.524C183.367 239.654 182.972 239.67 182.597 239.571C182.222 239.471 181.884 239.259 181.624 238.962C181.365 238.665 181.195 238.295 181.136 237.899C181.077 237.503 181.132 237.097 181.294 236.733C181.455 236.369 181.717 236.062 182.045 235.85C182.374 235.639 182.756 235.531 183.142 235.542C183.677 235.573 184.179 235.821 184.538 236.232C184.897 236.643 185.085 237.184 185.062 237.738Z" fill="black"/>
<path d="M191.175 237.768C191.194 238.048 191.157 238.329 191.067 238.594C190.976 238.858 190.834 239.101 190.649 239.306C190.464 239.512 190.24 239.676 189.991 239.788C189.743 239.9 189.474 239.957 189.203 239.957C188.932 239.957 188.664 239.9 188.415 239.788C188.166 239.676 187.942 239.512 187.757 239.306C187.572 239.101 187.43 238.858 187.34 238.594C187.249 238.329 187.212 238.048 187.231 237.768C187.212 237.488 187.249 237.206 187.34 236.942C187.43 236.677 187.572 236.434 187.757 236.229C187.942 236.024 188.166 235.86 188.415 235.748C188.664 235.636 188.932 235.578 189.203 235.578C189.474 235.578 189.743 235.636 189.991 235.748C190.24 235.86 190.464 236.024 190.649 236.229C190.834 236.434 190.976 236.677 191.067 236.942C191.157 237.206 191.194 237.488 191.175 237.768Z" fill="black"/>
<path d="M197.298 237.798C197.27 238.197 197.129 238.58 196.893 238.897C196.656 239.215 196.335 239.453 195.969 239.584C195.603 239.714 195.208 239.73 194.834 239.63C194.459 239.53 194.12 239.319 193.861 239.021C193.601 238.724 193.431 238.355 193.372 237.958C193.314 237.562 193.369 237.157 193.53 236.793C193.692 236.429 193.953 236.122 194.282 235.91C194.61 235.698 194.992 235.591 195.379 235.601C195.913 235.635 196.413 235.883 196.771 236.294C197.13 236.705 197.319 237.244 197.298 237.798Z" fill="black"/>
<path d="M203.412 237.827C203.383 238.227 203.242 238.609 203.006 238.927C202.77 239.244 202.449 239.483 202.083 239.613C201.717 239.744 201.322 239.76 200.947 239.66C200.572 239.56 200.234 239.348 199.974 239.051C199.714 238.754 199.545 238.384 199.486 237.988C199.427 237.592 199.482 237.187 199.644 236.823C199.805 236.459 200.067 236.151 200.395 235.94C200.724 235.728 201.105 235.621 201.492 235.631C202.026 235.665 202.526 235.913 202.885 236.324C203.244 236.734 203.433 237.274 203.412 237.827Z" fill="black"/>
<path d="M209.525 237.847C209.499 238.248 209.359 238.631 209.124 238.95C208.889 239.269 208.568 239.509 208.202 239.641C207.836 239.773 207.441 239.79 207.065 239.691C206.69 239.592 206.35 239.381 206.09 239.084C205.829 238.788 205.658 238.418 205.599 238.021C205.54 237.625 205.594 237.219 205.756 236.854C205.917 236.49 206.179 236.182 206.507 235.97C206.836 235.758 207.218 235.65 207.606 235.661C208.138 235.694 208.636 235.942 208.995 236.35C209.353 236.758 209.544 237.296 209.525 237.847Z" fill="black"/>
<path d="M215.648 237.877C215.622 238.275 215.484 238.657 215.251 238.975C215.018 239.293 214.7 239.534 214.337 239.667C213.974 239.801 213.581 239.821 213.206 239.726C212.832 239.632 212.492 239.425 212.229 239.133C211.966 238.841 211.792 238.476 211.727 238.083C211.662 237.689 211.71 237.285 211.864 236.919C212.018 236.553 212.272 236.242 212.595 236.024C212.918 235.806 213.295 235.69 213.681 235.691C214.221 235.712 214.732 235.953 215.101 236.363C215.469 236.773 215.666 237.317 215.648 237.877Z" fill="black"/>
<path d="M221.761 237.907C221.78 238.187 221.743 238.468 221.653 238.733C221.562 238.998 221.42 239.24 221.235 239.446C221.05 239.651 220.826 239.815 220.577 239.927C220.329 240.039 220.06 240.096 219.789 240.096C219.518 240.096 219.25 240.039 219.001 239.927C218.752 239.815 218.528 239.651 218.343 239.446C218.158 239.24 218.016 238.998 217.926 238.733C217.835 238.468 217.798 238.187 217.817 237.907C217.798 237.627 217.835 237.346 217.926 237.081C218.016 236.816 218.158 236.574 218.343 236.368C218.528 236.163 218.752 235.999 219.001 235.887C219.25 235.775 219.518 235.717 219.789 235.717C220.06 235.717 220.329 235.775 220.577 235.887C220.826 235.999 221.05 236.163 221.235 236.368C221.42 236.574 221.562 236.816 221.653 237.081C221.743 237.346 221.78 237.627 221.761 237.907Z" fill="black"/>
<path d="M227.875 237.937C227.849 238.335 227.711 238.717 227.478 239.035C227.245 239.353 226.927 239.593 226.564 239.727C226.2 239.86 225.807 239.881 225.433 239.786C225.058 239.691 224.719 239.485 224.456 239.193C224.193 238.901 224.019 238.536 223.954 238.142C223.889 237.749 223.936 237.344 224.09 236.979C224.245 236.613 224.499 236.302 224.822 236.083C225.144 235.865 225.522 235.75 225.907 235.751C226.448 235.771 226.959 236.013 227.327 236.423C227.696 236.833 227.893 237.377 227.875 237.937Z" fill="black"/>
<path d="M233.988 237.967C233.962 238.367 233.822 238.75 233.587 239.069C233.352 239.388 233.031 239.628 232.665 239.76C232.299 239.892 231.904 239.909 231.528 239.811C231.153 239.712 230.814 239.501 230.553 239.204C230.292 238.907 230.122 238.537 230.062 238.141C230.003 237.744 230.057 237.338 230.219 236.974C230.38 236.609 230.642 236.301 230.971 236.089C231.3 235.877 231.681 235.77 232.069 235.78C232.601 235.814 233.099 236.061 233.458 236.469C233.816 236.878 234.007 237.415 233.988 237.967Z" fill="black"/>
<g opacity="0.2">
<path d="M185.062 237.738C185.034 238.138 184.893 238.52 184.656 238.837C184.42 239.155 184.099 239.394 183.733 239.524C183.367 239.654 182.972 239.67 182.597 239.571C182.222 239.471 181.884 239.259 181.624 238.962C181.365 238.665 181.195 238.295 181.136 237.899C181.077 237.503 181.132 237.097 181.294 236.733C181.455 236.369 181.717 236.062 182.045 235.85C182.374 235.639 182.756 235.531 183.142 235.542C183.677 235.573 184.179 235.821 184.538 236.232C184.897 236.643 185.085 237.184 185.062 237.738Z" fill="white"/>
<path d="M191.175 237.768C191.194 238.048 191.157 238.329 191.067 238.594C190.976 238.858 190.834 239.101 190.649 239.306C190.464 239.512 190.24 239.676 189.991 239.788C189.743 239.9 189.474 239.957 189.203 239.957C188.932 239.957 188.664 239.9 188.415 239.788C188.166 239.676 187.942 239.512 187.757 239.306C187.572 239.101 187.43 238.858 187.34 238.594C187.249 238.329 187.212 238.048 187.231 237.768C187.212 237.488 187.249 237.206 187.34 236.942C187.43 236.677 187.572 236.434 187.757 236.229C187.942 236.024 188.166 235.86 188.415 235.748C188.664 235.636 188.932 235.578 189.203 235.578C189.474 235.578 189.743 235.636 189.991 235.748C190.24 235.86 190.464 236.024 190.649 236.229C190.834 236.434 190.976 236.677 191.067 236.942C191.157 237.206 191.194 237.488 191.175 237.768Z" fill="white"/>
<path d="M197.298 237.798C197.27 238.197 197.129 238.58 196.893 238.897C196.656 239.215 196.335 239.453 195.969 239.584C195.603 239.714 195.208 239.73 194.834 239.63C194.459 239.53 194.12 239.319 193.861 239.021C193.601 238.724 193.431 238.355 193.372 237.959C193.314 237.562 193.369 237.157 193.53 236.793C193.692 236.429 193.953 236.122 194.282 235.91C194.61 235.698 194.992 235.591 195.379 235.602C195.913 235.635 196.412 235.884 196.771 236.294C197.13 236.705 197.319 237.244 197.298 237.798Z" fill="white"/>
<path d="M203.412 237.828C203.383 238.227 203.242 238.61 203.006 238.927C202.77 239.245 202.449 239.483 202.083 239.614C201.717 239.744 201.322 239.76 200.947 239.66C200.572 239.56 200.234 239.349 199.974 239.051C199.714 238.754 199.545 238.385 199.486 237.989C199.427 237.592 199.482 237.187 199.644 236.823C199.805 236.459 200.067 236.152 200.395 235.94C200.724 235.728 201.105 235.621 201.492 235.632C202.026 235.665 202.526 235.913 202.885 236.324C203.244 236.735 203.433 237.274 203.412 237.828Z" fill="white"/>
<path d="M209.525 237.847C209.499 238.248 209.359 238.631 209.124 238.95C208.889 239.269 208.568 239.509 208.202 239.641C207.836 239.773 207.441 239.79 207.065 239.691C206.69 239.592 206.35 239.381 206.09 239.084C205.829 238.788 205.658 238.418 205.599 238.021C205.54 237.625 205.594 237.219 205.756 236.854C205.917 236.49 206.178 236.182 206.507 235.97C206.836 235.758 207.218 235.65 207.606 235.661C208.138 235.694 208.636 235.942 208.995 236.35C209.353 236.758 209.544 237.296 209.525 237.847Z" fill="white"/>
<path d="M215.648 237.877C215.622 238.275 215.484 238.657 215.251 238.975C215.018 239.293 214.7 239.534 214.337 239.667C213.974 239.801 213.58 239.821 213.206 239.726C212.832 239.632 212.492 239.425 212.229 239.133C211.966 238.841 211.792 238.476 211.727 238.083C211.662 237.689 211.709 237.285 211.864 236.919C212.018 236.553 212.272 236.242 212.595 236.024C212.918 235.806 213.295 235.69 213.681 235.691C214.221 235.712 214.732 235.953 215.101 236.363C215.469 236.773 215.666 237.317 215.648 237.877Z" fill="white"/>
<path d="M221.761 237.907C221.78 238.187 221.743 238.468 221.653 238.733C221.562 238.998 221.42 239.24 221.235 239.446C221.05 239.651 220.826 239.815 220.577 239.927C220.329 240.039 220.06 240.096 219.789 240.096C219.518 240.096 219.25 240.039 219.001 239.927C218.752 239.815 218.528 239.651 218.343 239.446C218.158 239.24 218.016 238.998 217.926 238.733C217.835 238.468 217.798 238.187 217.817 237.907C217.798 237.627 217.835 237.346 217.926 237.081C218.016 236.816 218.158 236.574 218.343 236.368C218.528 236.163 218.752 235.999 219.001 235.887C219.25 235.775 219.518 235.717 219.789 235.717C220.06 235.717 220.329 235.775 220.577 235.887C220.826 235.999 221.05 236.163 221.235 236.368C221.42 236.574 221.562 236.816 221.653 237.081C221.743 237.346 221.78 237.627 221.761 237.907Z" fill="white"/>
<path d="M227.875 237.937C227.849 238.335 227.711 238.717 227.478 239.035C227.245 239.353 226.927 239.593 226.564 239.727C226.2 239.86 225.807 239.881 225.433 239.786C225.058 239.691 224.719 239.485 224.456 239.193C224.193 238.901 224.019 238.536 223.954 238.142C223.889 237.749 223.936 237.344 224.09 236.979C224.245 236.613 224.499 236.302 224.822 236.083C225.144 235.865 225.522 235.75 225.907 235.751C226.448 235.771 226.959 236.013 227.327 236.423C227.696 236.833 227.893 237.377 227.875 237.937Z" fill="white"/>
<path d="M233.988 237.967C233.962 238.367 233.822 238.75 233.587 239.069C233.352 239.388 233.031 239.628 232.665 239.76C232.299 239.892 231.904 239.909 231.528 239.811C231.153 239.712 230.814 239.501 230.553 239.204C230.292 238.907 230.122 238.537 230.062 238.141C230.003 237.744 230.057 237.338 230.219 236.974C230.38 236.609 230.642 236.301 230.971 236.089C231.3 235.877 231.681 235.77 232.069 235.78C232.601 235.814 233.099 236.061 233.458 236.469C233.816 236.878 234.007 237.415 233.988 237.967Z" fill="white"/>
</g>
<path d="M225.303 94.5155C225.969 94.2115 226.535 93.7112 226.929 93.0769C227.323 92.4426 227.529 91.7023 227.52 90.9481C227.545 90.4578 227.473 89.9674 227.309 89.5068C227.145 89.0462 226.892 88.6249 226.565 88.2688C226.239 87.9127 225.846 87.6291 225.41 87.4352C224.975 87.2414 224.505 87.1415 224.031 87.1415C223.557 87.1415 223.088 87.2414 222.652 87.4352C222.216 87.6291 221.823 87.9127 221.497 88.2688C221.171 88.6249 220.918 89.0462 220.754 89.5068C220.59 89.9674 220.518 90.4578 220.543 90.9481C220.528 91.7098 220.732 92.459 221.128 93.101C221.524 93.743 222.095 94.249 222.769 94.5552C217.395 95.3899 217.635 101.432 217.635 101.432L230.341 101.491C230.341 101.491 230.639 95.3402 225.303 94.5155Z" fill="black"/>
<path opacity="0.1" d="M225.303 94.5155C225.969 94.2115 226.535 93.7112 226.929 93.0769C227.323 92.4426 227.529 91.7023 227.52 90.9481C227.545 90.4578 227.473 89.9674 227.309 89.5068C227.145 89.0462 226.892 88.6249 226.565 88.2688C226.239 87.9127 225.846 87.6291 225.41 87.4352C224.975 87.2414 224.505 87.1415 224.031 87.1415C223.557 87.1415 223.088 87.2414 222.652 87.4352C222.216 87.6291 221.823 87.9127 221.497 88.2688C221.171 88.6249 220.918 89.0462 220.754 89.5068C220.59 89.9674 220.518 90.4578 220.543 90.9481C220.528 91.7098 220.732 92.459 221.128 93.101C221.524 93.743 222.095 94.249 222.769 94.5552C217.395 95.3899 217.635 101.432 217.635 101.432L230.341 101.491C230.341 101.491 230.639 95.3402 225.303 94.5155Z" fill="black"/>
<path d="M245.951 105.388L200.662 105.175L200.637 110.78L245.926 110.993L245.951 105.388Z" fill="black"/>
<path opacity="0.2" d="M245.951 105.388L200.662 105.175L200.637 110.78L245.926 110.993L245.951 105.388Z" fill="white"/>
<path d="M79.4548 134.433H79.0038L77.6986 134.532C76.9922 134.576 76.2898 134.672 75.5968 134.82C75.1479 134.885 74.7026 134.975 74.2628 135.088L72.7752 135.516C70.2433 136.32 67.8545 137.545 65.7021 139.143C62.8584 141.28 60.4838 144.016 58.7346 147.172C57.7065 148.991 56.8883 150.929 56.2969 152.945C55.6755 155.137 55.3177 157.4 55.2316 159.683C55.1744 160.882 55.1937 162.083 55.2892 163.28C55.2892 163.886 55.4524 164.492 55.5291 165.108C55.5937 165.729 55.706 166.344 55.865 166.947C56.728 170.934 58.4791 174.658 60.9785 177.82C63.4779 180.982 66.6565 183.496 70.2608 185.161C72.8694 186.327 75.6653 186.977 78.5047 187.079C81.4374 187.246 84.3729 186.81 87.1422 185.797L87.9867 185.469H88.1019L88.1978 185.529L100.3 191.888L99.9448 192.206C98.6491 188.053 97.4015 184.028 96.1923 180.163V180.014L96.2978 179.904C99.2336 176.843 101.413 173.093 102.651 168.974C103.773 165.208 104.1 161.236 103.611 157.327C103.176 153.854 102.097 150.5 100.434 147.45C99.0007 144.83 97.1514 142.479 94.9638 140.494C93.1591 138.924 91.1615 137.607 89.0232 136.579C87.4052 135.856 85.7202 135.307 83.9943 134.939L82.0749 134.611L80.6833 134.502L79.8387 134.443H79.5508C79.6465 134.432 79.743 134.432 79.8387 134.443H80.6929L82.0845 134.502L84.0039 134.79C85.7513 135.131 87.4593 135.661 89.1 136.37C91.275 137.386 93.3086 138.7 95.1462 140.276C97.3739 142.251 99.2625 144.603 100.732 147.231C102.442 150.314 103.554 153.714 104.004 157.238C104.534 161.207 104.229 165.247 103.112 169.083C101.866 173.288 99.6525 177.117 96.6625 180.242L96.7201 179.984C97.9294 183.849 99.1866 187.874 100.492 192.018L100.674 192.624L100.127 192.336L88.0251 185.986H88.2362L87.3725 186.314C84.5499 187.342 81.56 187.788 78.5719 187.626C75.6713 187.511 72.8169 186.837 70.1552 185.638C65.078 183.387 60.8538 179.474 58.13 174.499C56.8765 172.201 55.9611 169.723 55.414 167.145C55.2641 166.527 55.152 165.9 55.0781 165.267C55.0013 164.641 54.8765 164.025 54.8477 163.409C54.588 159.873 54.9489 156.318 55.913 152.915C56.5191 150.871 57.3601 148.909 58.4179 147.072C60.2088 143.888 62.6329 141.135 65.5294 138.994C67.7172 137.392 70.1461 136.176 72.7176 135.396L74.2244 134.999C74.6679 134.892 75.1163 134.81 75.568 134.751C76.2682 134.616 76.9772 134.537 77.689 134.512L79.0038 134.462C79.1533 134.442 79.304 134.432 79.4548 134.433Z" fill="white"/>
<path d="M84.9253 157.606H83.1498L79.3109 152.021V148.354C79.3109 148.354 76.5661 148.176 76.8924 152.975C77.2187 157.775 76.8924 156.552 76.8924 156.552C76.8924 156.552 71.067 156.552 70.5871 157.099C70.1072 157.646 70.0785 163.469 70.0113 166.718C69.9745 167.501 70.1916 168.275 70.628 168.916C71.0645 169.557 71.6952 170.028 72.4202 170.256C72.6234 170.314 72.8331 170.344 73.044 170.345C74.5027 170.345 81.9213 169.123 81.9213 169.123H84.9828L84.9253 157.606Z" fill="white"/>
<path d="M90.0021 156.622L88.9081 169.182H85.8754V156.88L90.0021 156.622Z" fill="white"/>
<path d="M126.174 412.332V403.835L111.461 403.726L111.337 416.575L112.248 416.644C116.308 416.913 132.901 417.31 135.627 416.436C138.66 415.462 126.174 412.332 126.174 412.332Z" fill="white"/>
<path d="M135.972 415.641C135.972 415.78 130.464 415.899 123.679 415.899C116.893 415.899 111.385 415.78 111.385 415.641C111.385 415.501 116.893 415.382 123.679 415.382C130.464 415.382 135.972 415.501 135.972 415.641Z" fill="#003566"/>
<path d="M126.433 414.071C126.308 414.001 126.433 413.554 126.73 413.077C127.028 412.6 127.431 412.401 127.527 412.501C127.623 412.6 127.421 412.978 127.133 413.385C126.846 413.792 126.558 414.14 126.433 414.071Z" fill="#003566"/>
<path d="M127.373 414.627C127.239 414.627 127.306 414.071 127.594 413.544C127.882 413.017 128.266 412.699 128.372 412.779C128.477 412.858 128.304 413.305 128.036 413.772C127.767 414.239 127.498 414.677 127.373 414.627Z" fill="#003566"/>
<path d="M115.818 415.601C115.761 415.601 115.54 415.422 115.223 415.044C114.837 414.559 114.406 414.113 113.937 413.713C113.476 413.331 112.927 413.081 112.344 412.987C111.893 412.928 111.605 412.987 111.576 412.928C111.548 412.868 111.826 412.659 112.354 412.62C113.05 412.604 113.73 412.844 114.273 413.295C114.782 413.725 115.212 414.247 115.54 414.836C115.761 415.273 115.876 415.561 115.818 415.601Z" fill="#003566"/>
<path d="M126.481 412.471C126.548 412.59 126.299 412.888 125.876 413.047C125.454 413.206 125.08 413.146 125.061 413.047C125.041 412.948 125.339 412.739 125.704 412.6C126.068 412.461 126.404 412.351 126.481 412.471Z" fill="#003566"/>
<path d="M126.251 411.646C126.251 411.795 125.867 411.914 125.368 411.924C124.869 411.934 124.475 411.815 124.485 411.676C124.494 411.537 124.888 411.407 125.368 411.397C125.847 411.388 126.231 411.507 126.251 411.646Z" fill="#003566"/>
<path d="M162.403 412.332V403.835L147.691 403.726L147.566 416.446L148.478 416.515C152.537 416.783 169.14 417.31 171.856 416.436C174.889 415.462 162.403 412.332 162.403 412.332Z" fill="white"/>
<path d="M172.202 415.661C172.202 415.8 166.703 415.919 159.908 415.919C153.113 415.919 147.623 415.8 147.623 415.661C147.623 415.521 153.123 415.402 159.908 415.402C166.693 415.402 172.202 415.521 172.202 415.661Z" fill="#003566"/>
<path d="M162.662 414.071C162.547 414.001 162.662 413.554 162.96 413.077C163.257 412.6 163.66 412.401 163.756 412.501C163.852 412.6 163.651 412.978 163.363 413.385C163.075 413.792 162.787 414.14 162.662 414.071Z" fill="#003566"/>
<path d="M163.603 414.627C163.478 414.627 163.535 414.071 163.833 413.544C164.131 413.017 164.505 412.699 164.61 412.779C164.716 412.858 164.534 413.305 164.265 413.772C163.996 414.239 163.737 414.677 163.603 414.627Z" fill="#003566"/>
<path d="M152.048 415.601C151.99 415.601 151.779 415.422 151.453 415.044C151.066 414.559 150.635 414.113 150.167 413.713C149.706 413.331 149.156 413.081 148.573 412.987C148.132 412.928 147.835 412.987 147.806 412.928C147.777 412.868 148.055 412.659 148.583 412.62C149.28 412.604 149.959 412.844 150.503 413.295C151.014 413.722 151.444 414.245 151.769 414.836C151.99 415.273 152.105 415.561 152.048 415.601Z" fill="#003566"/>
<path d="M162.71 412.471C162.777 412.59 162.528 412.888 162.106 413.047C161.683 413.206 161.309 413.146 161.29 413.047C161.271 412.948 161.568 412.739 161.933 412.6C162.297 412.461 162.633 412.351 162.71 412.471Z" fill="#003566"/>
<path d="M162.499 411.646C162.499 411.795 162.115 411.914 161.616 411.924C161.117 411.934 160.733 411.815 160.743 411.676C160.752 411.537 161.136 411.407 161.616 411.397C162.096 411.388 162.499 411.507 162.499 411.646Z" fill="#003566"/>
<path d="M216.608 160.03C216.224 159.623 215.274 159.822 215.274 159.822C215.369 159.25 215.369 158.665 215.274 158.093C215.101 157.536 213.892 157.645 213.892 157.645C213.836 157.177 213.836 156.703 213.892 156.234C213.901 156.131 213.88 156.026 213.83 155.935C213.78 155.845 213.705 155.772 213.613 155.728C213.041 155.486 212.427 155.371 211.809 155.39C211.07 154.843 214.065 150.501 215.178 149.11C216.291 147.718 216.089 146.635 215.101 146.635C214.42 146.635 210.926 150.809 209.851 152.21C208.776 153.611 205.926 157.506 205.83 154.396C205.734 151.286 204.525 148.941 203.767 148.543C203.009 148.146 202.202 149.08 202.615 149.944C202.978 150.926 203.204 151.957 203.287 153.005C203.391 153.84 203.355 154.687 203.181 155.509C202.863 157.039 202.43 158.541 201.886 160.001H201.809C201.809 160.001 180.868 180.799 179.352 182.279C177.998 183.611 150.781 180.699 145.32 180.103C143.464 179.822 141.591 179.689 139.715 179.706C137.345 179.815 136.923 180.163 134.562 180.193C128.599 180.261 122.651 180.803 116.769 181.812C114.105 182.281 111.617 183.499 109.576 185.331C107.535 187.164 106.019 189.543 105.194 192.206C99.6952 209.994 87.2381 252.097 85.0404 275.747C83.3796 278.865 81.8804 282.073 80.5489 285.356C79.0038 289.709 79.3781 289.858 79.8963 289.957C81.2975 290.225 82.8906 282.415 83.4856 284.303C84.0807 286.191 80.4625 293.614 81.9309 293.832C83.8503 294.111 85.3763 285.883 85.5586 285.227C85.741 284.571 86.6911 284.78 86.5183 285.396C86.24 286.27 83.5432 295.542 85.4243 295.84C86.4608 295.999 86.5759 294.041 86.5759 294.041C86.5759 294.041 88.4954 285.167 89.3687 285.346C90.242 285.525 89.3111 290.762 88.8696 292.511C88.4282 294.26 89.0424 295.144 89.9445 294.717C90.5587 294.419 92.0271 289.102 92.4302 287.373C92.8333 285.644 93.841 280.855 95.1942 283.627C96.5474 286.4 98.6012 288.009 99.4457 288.049C99.636 288.026 99.8154 287.945 99.9608 287.816C100.106 287.687 100.211 287.516 100.261 287.324C100.312 287.133 100.306 286.93 100.245 286.743C100.183 286.555 100.069 286.39 99.916 286.27C99.1896 285.536 98.5661 284.7 98.0637 283.786C97.616 283.075 97.2913 282.288 97.104 281.461C96.7173 279.813 96.4922 278.128 96.4322 276.433L96.2786 275.439C98.4284 264.419 104.619 232.074 113.554 211.415L117.22 219.225L118.813 225.009L109.043 249.98L150.714 249.414L144.495 224.631L152.048 198.795C160.215 198.984 181.185 199.302 184.678 197.662C189.074 195.674 211.809 165.943 211.809 165.943C213.291 164.751 214.71 163.477 216.061 162.127C216.061 162.127 217.443 160.925 216.608 160.03Z" fill="#FFBE9D"/>
<path d="M107.21 231.527C108.419 227.254 114.628 206.128 114.628 206.128C114.628 206.128 117.68 223.349 116.874 225.426C116.133 227.204 115.256 228.918 114.254 230.553C107.21 241.653 108.131 247.208 108.131 247.208L150.694 245.866C150.79 239.705 147.268 225.376 146.539 223.091C145.81 220.805 148.238 213.323 148.238 213.323C148.238 213.323 153.036 208.265 152.863 205.661C152.772 203.323 152.493 200.996 152.028 198.705L177.941 199.699L177.125 181.514L139.907 177.659C138.612 181.445 126.894 179.586 126.894 179.586C114.244 180.024 113.458 182.428 108.198 186.662C102.939 190.895 94.2344 227.225 94.2344 227.225L107.21 231.527Z" fill="white"/>
<path d="M132.374 227.225C131.636 227.361 130.885 227.401 130.137 227.344C128.746 227.344 126.836 227.244 124.734 227.026C122.632 226.807 120.732 226.499 119.379 226.221C118.633 226.121 117.901 225.928 117.2 225.645C117.951 225.645 118.699 225.718 119.437 225.863C120.799 226.042 122.69 226.29 124.782 226.509C126.874 226.728 128.775 226.877 130.147 226.976C130.895 226.986 131.641 227.069 132.374 227.225Z" fill="#003566"/>
<path d="M135.291 223.478C134.553 223.853 133.773 224.13 132.969 224.303C129.14 225.345 125.189 225.83 121.231 225.744C120.412 225.772 119.593 225.691 118.794 225.505C119.602 225.4 120.417 225.357 121.231 225.376C122.738 225.327 124.811 225.217 127.095 224.939C129.379 224.661 131.414 224.263 132.853 223.945C133.653 223.724 134.468 223.568 135.291 223.478Z" fill="#003566"/>
<path d="M149.61 206.764C149.591 207.522 149.491 208.275 149.312 209.01C149.063 210.391 148.679 212.279 148.19 214.346C147.7 216.413 147.23 218.321 146.808 219.613C146.638 220.352 146.387 221.069 146.059 221.749C146.113 220.994 146.248 220.247 146.462 219.523C146.827 217.973 147.24 216.185 147.7 214.227C148.161 212.269 148.602 210.481 148.967 208.93C149.097 208.184 149.313 207.457 149.61 206.764Z" fill="#003566"/>
<path d="M107.661 228.993C105.441 228.638 103.249 228.11 101.106 227.413C98.9159 226.883 96.7666 226.186 94.676 225.327C96.8951 225.687 99.0859 226.215 101.231 226.907C103.422 227.435 105.571 228.132 107.661 228.993Z" fill="#003566"/>
<path d="M152.489 198.487C152.127 198.551 151.757 198.551 151.395 198.487C150.393 198.38 149.408 198.136 148.468 197.761C146.898 197.15 145.469 196.206 144.272 194.99C143.076 193.773 142.138 192.31 141.52 190.696C140.836 188.92 140.544 187.009 140.665 185.102C140.708 183.528 141.163 181.996 141.98 180.67C142.555 179.776 143.414 179.118 144.408 178.811C144.674 178.735 144.949 178.699 145.224 178.702C145.416 178.702 145.512 178.702 145.512 178.702C145.512 178.702 145.109 178.702 144.466 178.97C143.554 179.319 142.781 179.973 142.268 180.829C140.963 182.955 140.598 186.84 141.99 190.468C142.638 192.178 143.652 193.713 144.955 194.959C146.024 195.978 147.254 196.799 148.593 197.384C149.849 197.898 151.155 198.268 152.489 198.487Z" fill="#003566"/>
<path d="M174.86 199.341C174.62 196.294 174.543 193.235 174.63 190.179C174.555 187.126 174.644 184.07 174.898 181.027C175.139 184.071 175.216 187.127 175.129 190.179C175.21 193.236 175.12 196.295 174.86 199.341Z" fill="#003566"/>
<path d="M139.658 178.772C139.763 176.556 139.984 174.051 139.984 174.051C139.984 174.051 145.282 173.445 145.598 167.781C145.915 162.117 145.598 149.05 145.598 149.05L136.001 143.962L125.348 152.637L126.99 180.958L136.759 181.604C137.506 181.625 138.231 181.339 138.774 180.808C139.317 180.277 139.635 179.545 139.658 178.772Z" fill="#FFBE9D"/>
<path d="M140.608 163.3C140.608 163.3 140.608 163.409 140.521 163.538C140.45 163.632 140.358 163.706 140.252 163.755C140.147 163.803 140.032 163.824 139.917 163.816C139.303 163.816 138.708 163.081 138.496 162.226C138.396 161.812 138.396 161.379 138.496 160.964C138.516 160.784 138.579 160.611 138.68 160.461C138.78 160.312 138.915 160.191 139.072 160.11C139.201 160.055 139.346 160.055 139.475 160.11C139.571 160.159 139.649 160.239 139.696 160.338C139.763 160.507 139.696 160.617 139.696 160.607C139.696 160.597 139.696 160.507 139.6 160.408C139.55 160.337 139.476 160.287 139.393 160.269C139.31 160.251 139.223 160.265 139.149 160.309C139.031 160.382 138.934 160.486 138.865 160.609C138.796 160.732 138.758 160.872 138.756 161.014C138.675 161.384 138.675 161.767 138.756 162.137C138.948 162.912 139.466 163.538 139.926 163.598C140.017 163.61 140.108 163.604 140.196 163.578C140.283 163.552 140.365 163.508 140.435 163.449C140.55 163.369 140.589 163.29 140.608 163.3Z" fill="#EB996E"/>
<path d="M148.89 145.989C148.151 143.386 145.474 142.094 143.036 141.379C139.322 140.285 135.31 139.808 131.683 141.19C128.055 142.571 123.698 144.996 123.698 149.139C121.558 148.961 120.329 150.898 119.485 153.303C118.945 154.768 118.621 156.309 118.525 157.874C118.256 163.3 116.788 170.792 113.39 174.767C111.471 176.983 108.813 178.513 107.718 181.276C106.759 183.671 107.258 186.513 106.365 188.937C105.569 191.074 103.812 192.594 102.526 194.452C101.216 196.56 100.445 198.979 100.286 201.48C100.126 203.981 100.583 206.484 101.615 208.752C102.653 210.962 104.115 212.929 105.912 214.535C107.709 216.141 109.803 217.351 112.066 218.092C116.549 219.505 121.329 219.553 125.838 218.232C129.222 217.394 132.378 215.773 135.07 213.492C137.825 211.162 139.717 207.918 140.426 204.31C141.107 200.255 140.013 196.132 139.197 192.097C136.644 179.348 137.374 178.682 140.598 166.847C140.675 166.638 140.713 166.42 140.771 166.211C140.829 166.003 140.857 165.903 140.896 165.744C140.987 165.276 141.036 164.8 141.04 164.323C140.569 164.505 140.058 164.543 139.566 164.434C139.075 164.325 138.624 164.072 138.266 163.707C137.908 163.317 137.658 162.835 137.543 162.31C137.428 161.785 137.452 161.238 137.614 160.726C137.84 160.166 138.177 159.662 138.604 159.246C139.03 158.83 139.537 158.512 140.09 158.311C141.155 157.854 142.297 157.616 143.343 157.109C145.56 156.016 147.096 153.75 148.142 151.375C149.002 149.729 149.267 147.82 148.89 145.989Z" fill="black"/>
<path d="M140.992 163.568C141.195 163.878 141.362 164.212 141.491 164.562C141.779 165.188 142.163 166.072 142.585 167.096L142.662 167.284H142.46L141.5 167.374C140.838 167.374 140.282 167.503 139.629 167.493C139.572 167.48 139.519 167.452 139.476 167.412C139.432 167.372 139.399 167.321 139.379 167.265C139.351 167.174 139.351 167.077 139.379 166.986C139.402 166.852 139.431 166.72 139.466 166.589L139.639 165.883C139.725 165.413 139.861 164.953 140.042 164.512C140.024 164.992 139.956 165.468 139.84 165.933L139.706 166.638C139.658 166.877 139.571 167.245 139.706 167.215C140.186 167.215 140.867 167.106 141.5 167.066L142.46 166.976L142.335 167.195C141.923 166.201 141.577 165.267 141.376 164.621C141.199 164.291 141.07 163.937 140.992 163.568Z" fill="white"/>
<path d="M108.131 247.208L150.694 245.866L169.217 320.732L165.81 406.608H143.305L146.059 322.56L129.6 270.441L132.134 409.937L109.388 410.285L106.999 279.165C106.893 275.519 105.741 267.301 106.173 263.684L108.131 247.208Z" fill="#455A64"/>
<path d="M135.262 271.504C134.566 271.549 133.866 271.506 133.18 271.375C131.894 271.216 130.137 270.938 128.208 270.54C126.279 270.143 124.552 269.686 123.304 269.318C122.637 269.166 121.992 268.926 121.385 268.602C121.385 268.453 124.513 269.228 128.352 270.033C132.191 270.838 135.281 271.355 135.262 271.504Z" fill="#455A64"/>
<path d="M165.58 401.898C165.58 402.037 160.484 402.156 154.197 402.156C147.911 402.156 142.806 402.037 142.806 401.898C142.806 401.759 147.902 401.639 154.197 401.639C160.493 401.639 165.58 401.749 165.58 401.898Z" fill="#455A64"/>
<path d="M131.932 406.31C131.932 406.459 126.98 406.568 120.876 406.568C114.772 406.568 109.83 406.459 109.83 406.31C109.83 406.161 114.782 406.051 120.876 406.051C126.97 406.051 131.932 406.171 131.932 406.31Z" fill="#455A64"/>
<path d="M128.995 405.952C128.861 405.952 128.266 375.475 127.661 337.883C127.057 300.292 126.702 269.795 126.826 269.795C126.951 269.795 127.565 300.262 128.16 337.873C128.755 375.485 129.139 405.952 128.995 405.952Z" fill="#455A64"/>
<path d="M162.557 401.898C162.546 401.762 162.546 401.626 162.557 401.49V400.298C162.557 399.225 162.633 397.684 162.691 395.727C162.825 391.752 163.017 385.979 163.257 378.903C163.775 364.674 164.505 345.058 165.301 323.405C165.301 323.196 165.301 322.998 165.301 322.819V322.888C160.263 302.021 155.704 283.081 152.393 269.377L148.554 253.17C148.113 251.272 147.777 249.792 147.537 248.758C147.422 248.271 147.345 247.894 147.278 247.605C147.241 247.476 147.218 247.343 147.211 247.208C147.261 247.333 147.299 247.463 147.326 247.595C147.403 247.874 147.499 248.251 147.633 248.728C147.892 249.722 148.266 251.232 148.746 253.12C149.706 256.956 151.059 262.481 152.748 269.288C156.088 282.981 160.695 301.872 165.8 322.769V322.839C165.8 323.018 165.8 323.226 165.8 323.425C164.946 345.078 164.169 364.684 163.603 378.913C163.305 385.998 163.056 391.732 162.883 395.727C162.787 397.714 162.71 399.225 162.662 400.298C162.662 400.805 162.605 401.202 162.595 401.49C162.596 401.627 162.584 401.764 162.557 401.898Z" fill="#455A64"/>
<path d="M155.215 321.07C153.598 321.62 151.933 322.003 150.243 322.213C148.17 322.58 146.405 322.839 145.608 322.878V322.68C145.867 322.759 146.001 322.809 146.001 322.849C146.001 322.888 145.838 322.849 145.57 322.849H144.994L145.57 322.67C146.318 322.441 148.084 322.064 150.157 321.676C151.82 321.303 153.514 321.1 155.215 321.07Z" fill="#455A64"/>
<path d="M154.821 323.922C153.324 323.993 151.824 323.923 150.339 323.713C148.84 323.681 147.347 323.512 145.877 323.206C148.876 322.953 151.895 323.194 154.821 323.922Z" fill="#455A64"/>
<path opacity="0.2" d="M107.949 248.788C108.453 249.458 109.088 250.011 109.812 250.41C110.536 250.809 111.334 251.045 112.152 251.103C113.867 251.314 115.601 251.28 117.306 251.004C128.295 249.742 139.936 248.579 150.695 245.866C136.769 246.671 122.057 246.403 108.131 247.208L107.987 248.44" fill="white"/>
<g opacity="0.2">
<path d="M122.297 269.109L130.147 300.649L129.6 270.441L122.297 269.109Z" fill="white"/>
</g>
</svg>
