<svg width="82" height="82" viewBox="0 0 82 82" fill="none" xmlns="http://www.w3.org/2000/svg">
<path d="M0 40C0 21.1438 0 11.7157 5.85786 5.85786C11.7157 0 21.1438 0 40 0H42C60.8562 0 70.2843 0 76.1421 5.85786C82 11.7157 82 21.1438 82 40V42C82 60.8562 82 70.2843 76.1421 76.1421C70.2843 82 60.8562 82 42 82H40C21.1438 82 11.7157 82 5.85786 76.1421C0 70.2843 0 60.8562 0 42V40Z" fill="#F8D57E" fill-opacity="0.2"/>
<path opacity="0.2" d="M25.4305 32.239C25.3116 32.4432 25.2493 32.6754 25.25 32.9117V49.0882C25.2513 49.3219 25.3141 49.5511 25.4322 49.7527C25.5503 49.9544 25.7195 50.1213 25.9227 50.2367L40.3602 58.3578C40.5548 58.469 40.7759 58.5257 41 58.5218L41.1477 41L25.4305 32.239Z" fill="#F8D57E"/>
<path d="M56.75 49.0882V32.9117C56.7487 32.678 56.6859 32.4488 56.5678 32.2472C56.4497 32.0456 56.2805 31.8786 56.0773 31.7632L41.6398 23.6421C41.4453 23.5298 41.2246 23.4707 41 23.4707C40.7754 23.4707 40.5547 23.5298 40.3602 23.6421L25.9227 31.7632C25.7195 31.8786 25.5503 32.0456 25.4322 32.2472C25.3141 32.4488 25.2513 32.678 25.25 32.9117V49.0882C25.2513 49.3219 25.3141 49.5511 25.4322 49.7527C25.5503 49.9544 25.7195 50.1213 25.9227 50.2367L40.3602 58.3578C40.5547 58.4701 40.7754 58.5292 41 58.5292C41.2246 58.5292 41.4453 58.4701 41.6398 58.3578L56.0773 50.2367C56.2805 50.1213 56.4497 49.9544 56.5678 49.7527C56.6859 49.5511 56.7487 49.3219 56.75 49.0882V49.0882Z" stroke="#F8D57E" stroke-width="2.375" stroke-linecap="round" stroke-linejoin="round"/>
<path d="M49.0391 45.0195V36.4883L33.125 27.7109" stroke="#F8D57E" stroke-width="2.375" stroke-linecap="round" stroke-linejoin="round"/>
<path d="M56.5695 32.239L41.1477 41L25.4305 32.239" stroke="#F8D57E" stroke-width="2.375" stroke-linecap="round" stroke-linejoin="round"/>
<path d="M41.1476 41L41 58.5219" stroke="#F8D57E" stroke-width="2.375" stroke-linecap="round" stroke-linejoin="round"/>
</svg>
