<svg width="82" height="82" viewBox="0 0 82 82" fill="none" xmlns="http://www.w3.org/2000/svg">
<path d="M0 40C0 21.1438 0 11.7157 5.85786 5.85786C11.7157 0 21.1438 0 40 0H42C60.8562 0 70.2843 0 76.1421 5.85786C82 11.7157 82 21.1438 82 40V42C82 60.8562 82 70.2843 76.1421 76.1421C70.2843 82 60.8562 82 42 82H40C21.1438 82 11.7157 82 5.85786 76.1421C0 70.2843 0 60.8562 0 42V40Z" fill="#F8D57E" fill-opacity="0.2"/>
<path opacity="0.2" d="M36.8 52.5501L29.45 45.2001L26.218 54.1087C26.1286 54.3424 26.1088 54.5971 26.1611 54.8418C26.2133 55.0866 26.3352 55.311 26.5122 55.4879C26.6891 55.6649 26.9135 55.7868 27.1583 55.839C27.403 55.8912 27.6576 55.8715 27.8914 55.7821L36.8 52.5501Z" fill="#F8D57E"/>
<path opacity="0.2" d="M52.6124 44.8422L52.6126 44.8425C52.7608 44.9894 52.8695 45.1714 52.9285 45.3716C52.9875 45.5718 52.995 45.7837 52.9502 45.9875C52.9054 46.1914 52.8098 46.3806 52.6723 46.5376C52.5348 46.6946 52.3599 46.8143 52.1637 46.8856L45.4816 49.314L32.6859 36.5184L35.1143 29.8362C35.1856 29.64 35.3053 29.4651 35.4623 29.3276C35.6193 29.1901 35.8085 29.0945 36.0124 29.0497C36.2162 29.0049 36.4281 29.0124 36.6283 29.0714C36.8285 29.1304 37.0105 29.2391 37.1575 29.3873L37.1577 29.3876L52.6124 44.8422Z" fill="#F8D57E" stroke="#F8D57E" stroke-width="0.148438"/>
<path d="M26.218 54.1085L35.0445 29.8109C35.1201 29.6029 35.247 29.4175 35.4134 29.2718C35.5798 29.126 35.7804 29.0247 35.9965 28.9772C36.2125 28.9298 36.4371 28.9377 36.6493 29.0002C36.8615 29.0628 37.0544 29.178 37.2102 29.3351L52.6648 44.7898C52.8219 44.9455 52.9371 45.1384 52.9997 45.3506C53.0622 45.5628 53.0702 45.7874 53.0227 46.0035C52.9752 46.2195 52.8739 46.4201 52.7282 46.5865C52.5824 46.7529 52.397 46.8798 52.1891 46.9554L27.8914 55.7819C27.6576 55.8713 27.403 55.8911 27.1583 55.8389C26.9135 55.7867 26.6891 55.6647 26.5122 55.4878C26.3352 55.3108 26.2133 55.0864 26.1611 54.8417C26.1088 54.5969 26.1286 54.3423 26.218 54.1085V54.1085Z" stroke="#F8D57E" stroke-width="2.375" stroke-linecap="round" stroke-linejoin="round"/>
<path d="M47.5625 31.8125C47.5625 31.8125 47.5625 27.875 51.5 27.875C55.4375 27.875 55.4375 23.9375 55.4375 23.9375" stroke="#F8D57E" stroke-width="2.375" stroke-linecap="round" stroke-linejoin="round"/>
<path d="M36.8 52.5501L29.45 45.2001" stroke="#F8D57E" stroke-width="2.375" stroke-linecap="round" stroke-linejoin="round"/>
<path d="M43.625 22.625V26.5625" stroke="#F8D57E" stroke-width="2.375" stroke-linecap="round" stroke-linejoin="round"/>
<path d="M55.4375 38.375L58.0625 41" stroke="#F8D57E" stroke-width="2.375" stroke-linecap="round" stroke-linejoin="round"/>
<path d="M55.4375 33.125L59.375 31.8125" stroke="#F8D57E" stroke-width="2.375" stroke-linecap="round" stroke-linejoin="round"/>
<path d="M32.6 36.5375L45.4625 49.4" stroke="#F8D57E" stroke-width="2.375" stroke-linecap="round" stroke-linejoin="round"/>
</svg>
