<svg width="286" height="266" viewBox="0 0 286 266" fill="none" xmlns="http://www.w3.org/2000/svg">
<g clip-path="url(#clip0_15_87)">
<path d="M34.3438 28.6562C33.4531 28.6562 33.0078 28.2422 32.5625 27.8281C31.6719 27 31.6719 25.3437 32.5625 24.1016L38.7969 18.3047C39.6875 17.0625 41.4688 17.0625 42.8047 18.3047L48.5938 23.6875C49.4844 24.5156 49.4844 26.1719 48.5938 27.4141C47.7031 28.2422 45.9219 28.2422 44.5859 27.4141L40.5781 23.6875L36.125 27.8281C35.6797 28.2422 34.7891 28.6562 34.3438 28.6562Z" fill="#FF9D23"/>
<path d="M270.805 158.672C269.914 158.672 269.469 158.258 269.023 157.844C268.133 157.016 268.133 155.359 269.023 154.117L275.258 148.32C276.148 147.492 277.93 147.492 279.266 148.32L285.055 153.703C285.945 154.531 285.945 156.188 285.055 157.43C284.164 158.258 282.383 158.258 281.047 157.43L277.039 153.703L272.586 157.844C272.141 158.258 271.25 158.672 270.805 158.672ZM3.17188 147.492C2.28125 147.492 1.83594 147.078 1.39062 146.664C0.5 145.836 0.5 144.18 1.39062 142.938L9.85156 135.07C10.7422 134.242 12.5234 134.242 13.8594 135.07C14.75 135.898 14.75 137.555 13.8594 138.797L5.39844 146.664C4.95313 147.078 4.0625 147.492 3.17188 147.492Z" fill="#9495FA"/>
<path d="M232.508 19.5469C231.617 19.5469 231.172 19.1328 230.727 18.7188C229.836 17.8906 229.836 16.2344 230.727 14.9922L240.523 5.88281C241.414 5.05469 243.195 5.05469 244.531 5.88281C245.422 7.125 245.422 8.78125 244.086 9.60938L234.289 18.7188C233.844 19.5469 232.953 19.5469 232.508 19.5469Z" fill="#FF4B4D"/>
<path d="M70.8594 260.531C69.9688 260.531 69.5234 260.117 69.0781 259.703C68.1875 258.875 68.1875 257.219 69.0781 255.977L78.875 246.867C79.7656 246.039 81.5469 246.039 82.8828 246.867C83.7734 247.695 83.7734 249.352 82.8828 250.594L73.0859 259.703C72.1953 260.531 71.75 260.531 70.8594 260.531Z" fill="#0000DB"/>
<path d="M224.492 251.836C223.602 251.836 223.156 251.422 222.711 251.008C221.82 250.18 221.82 248.523 222.711 247.281L232.508 238.172C233.398 237.344 235.18 237.344 236.516 238.172C237.406 239 237.406 240.656 236.516 241.898L226.719 251.008C226.273 251.422 225.383 251.836 224.492 251.836Z" fill="#FF9D23"/>
<path d="M194.656 234.859C188.867 240.242 183.078 245.625 175.508 248.523C166.602 251.836 156.805 251.422 147.453 248.938C138.547 246.453 130.086 241.898 121.625 237.344C98.0234 224.508 74.4219 212.086 50.8203 199.25C45.4766 196.352 40.1328 193.453 36.5703 189.312C29.8906 181.031 29.8906 169.438 34.7891 159.914C39.6875 150.391 48.1484 143.352 57.0547 137.141C65.9609 130.93 75.3125 125.133 83.3281 118.094C90.4531 111.469 96.2422 103.188 103.813 96.1484C125.633 75.4453 162.594 70.0625 190.648 82.8984C211.133 92.4219 225.383 109.813 239.188 126.789C249.43 139.211 259.672 152.461 259.672 167.781C259.672 182.688 248.984 195.938 234.734 201.32C218.258 207.531 206.234 223.266 194.656 234.859Z" fill="url(#paint0_linear_15_87)"/>
<path d="M252.102 111.883C252.102 153.289 224.938 188.898 186.195 203.805C186.195 203.805 168.828 177.719 134.094 185.586C107.82 191.383 108.266 171.922 110.492 161.57C111.383 157.43 110.492 153.289 108.711 149.562C103.813 138.797 95.7969 118.094 109.602 118.922C109.602 118.922 135.875 125.961 139.438 76.2734C139.883 72.9609 143 70.8906 146.563 71.7188C154.133 73.7891 166.156 81.2422 167.938 108.984C170.609 150.805 230.727 157.844 231.172 122.234C227.609 89.5234 249.875 92.0078 249.875 92.0078C251.211 98.2188 252.102 104.844 252.102 111.883Z" fill="#FF9D23" stroke="#0000DB" stroke-width="1.327" stroke-miterlimit="10" stroke-linecap="round" stroke-linejoin="round"/>
<path d="M249.875 92.0078C249.875 92.0078 227.609 89.9375 230.727 122.648C230.281 158.258 170.164 151.219 167.492 109.398C165.711 81.6562 153.688 74.2031 146.117 72.1328C142.555 71.3047 139.438 73.7891 138.992 76.6875C135.43 125.961 109.156 119.336 109.156 119.336C95.3516 118.508 103.367 139.211 108.266 149.977C110.047 153.703 110.492 157.844 110.047 161.984C108.266 172.336 107.82 191.797 133.648 186C168.383 178.133 185.75 204.219 185.75 204.219C173.281 209.188 159.477 211.672 144.781 211.672C100.695 211.672 63.2891 187.242 46.8125 152.047C48.1484 141.281 54.3828 116.438 80.6562 108.57C95.7969 103.188 63.7344 68.4063 54.8281 58.8828C74.4219 30.7266 107.375 12.5078 145.227 12.5078C196.883 12.5078 240.078 46.4609 249.875 92.0078Z" fill="#9495FA" stroke="#0000DB" stroke-width="1.327" stroke-miterlimit="10" stroke-linecap="round" stroke-linejoin="round"/>
<path d="M81.1016 108.156C54.3828 116.023 48.5938 140.867 47.2578 151.633C41.4688 139.625 38.3516 125.961 38.3516 111.883C38.3516 92.0078 44.5859 73.7891 55.2734 58.4688C64.1797 67.9922 96.6875 102.359 81.1016 108.156Z" fill="#FF9D23" stroke="#0000DB" stroke-width="1.327" stroke-miterlimit="10" stroke-linecap="round" stroke-linejoin="round"/>
</g>
<defs>
<linearGradient id="paint0_linear_15_87" x1="145.289" y1="76.0788" x2="145.289" y2="251.02" gradientUnits="userSpaceOnUse">
<stop stop-color="white" stop-opacity="0.25"/>
<stop offset="1" stop-color="#F86C66" stop-opacity="0.9"/>
</linearGradient>
<clipPath id="clip0_15_87">
<rect width="285" height="265" fill="white" transform="translate(0.5 0.5)"/>
</clipPath>
</defs>
</svg>
