<svg width="241" height="227" viewBox="0 0 241 227" fill="none" xmlns="http://www.w3.org/2000/svg">
<path d="M80.645 184.164V183.68C80.645 183.581 80.5887 183.5 80.5812 183.401C80.5737 183.302 80.5475 183.253 80.5288 183.172C80.4584 182.724 80.2926 182.294 80.0413 181.907C76.6663 175.198 58.97 174.845 55.325 174.845C51.5375 174.845 32.5288 175.226 30.275 182.585C30.0955 183.098 30.0031 183.634 30.0013 184.174V206.633C30.0013 214.783 47.7688 215.663 55.4113 215.663C59.6375 215.663 80.7313 215.211 80.7313 206.333C80.7311 206.04 80.7022 205.748 80.645 205.461V184.164ZM37.52 191.226C37.7038 191.286 37.895 191.329 38.0938 191.385C38.6 191.541 39.11 191.682 39.635 191.816L40.5162 192.024C41.06 192.148 41.6038 192.257 42.155 192.378L42.9725 192.529C43.6525 192.642 44.33 192.745 45.005 192.837L45.4025 192.893C46.2163 192.996 47.0075 193.08 47.78 193.154L48.4438 193.207C48.9913 193.253 49.52 193.296 50.03 193.331L50.7575 193.373C51.215 193.398 51.6462 193.423 52.0588 193.437C52.2763 193.437 52.4825 193.458 52.685 193.462L53.7913 193.493H54.2413H55.3438H56.4425H56.8925L58.0175 193.462L58.6363 193.44C59.0525 193.423 59.4875 193.398 59.945 193.373L60.665 193.331C61.1788 193.296 61.7188 193.253 62.27 193.207L62.9113 193.154C63.6875 193.08 64.4863 192.996 65.3 192.893C65.42 192.875 65.5437 192.854 65.675 192.84C66.3612 192.748 67.0475 192.646 67.7412 192.526C68.0075 192.483 68.2737 192.427 68.54 192.378C69.0987 192.275 69.665 192.162 70.1937 192.024C70.49 191.957 70.7788 191.89 71.0675 191.816C71.5963 191.685 72.11 191.537 72.6163 191.385C72.8038 191.329 72.9912 191.286 73.1862 191.226V193.97C67.6054 196.261 61.5242 197.263 55.4488 196.894C49.3136 197.274 43.1715 196.257 37.5425 193.928L37.52 191.226ZM71.7463 184.164C71.6338 184.21 71.54 184.252 71.4162 184.298L70.9888 184.446C70.6513 184.556 70.2762 184.669 69.8638 184.782C69.7062 184.824 69.5637 184.87 69.3988 184.912C68.0211 185.263 66.624 185.543 65.2138 185.749C64.9775 185.788 64.7188 185.816 64.4637 185.852C63.8712 185.933 63.2562 186.007 62.6113 186.074C62.2962 186.11 61.9738 186.138 61.6475 186.17C60.9837 186.226 60.2863 186.276 59.5738 186.318C59.255 186.336 58.9475 186.357 58.6175 186.371C57.5638 186.417 56.4725 186.449 55.325 186.449C54.1775 186.449 53.075 186.417 52.0288 186.371C51.7025 186.371 51.3913 186.336 51.0725 186.318C50.36 186.276 49.6663 186.226 49.0025 186.17C48.6725 186.138 48.35 186.11 48.035 186.074C47.3938 186.007 46.7788 185.933 46.1863 185.852L45.4363 185.749C44.026 185.543 42.6289 185.263 41.2513 184.912C41.0863 184.87 40.94 184.824 40.7863 184.782C40.385 184.669 40.01 184.556 39.6613 184.446L39.2338 184.298C39.11 184.252 39.0163 184.21 38.9038 184.164C44.1871 182.502 49.7426 181.739 55.31 181.911C60.8803 181.733 66.4397 182.491 71.7275 184.15L71.7463 184.164ZM55.43 208.604C49.3207 208.98 43.1997 208.058 37.52 205.906V201.668C43.3392 203.246 49.3708 204.021 55.4263 203.967C61.4251 204.015 67.3997 203.245 73.1638 201.679V205.701C67.5661 207.953 61.4869 208.942 55.4113 208.59L55.43 208.604ZM145.888 158.817C145.888 158.689 145.824 158.583 145.813 158.463V136.428C145.815 135.933 145.736 135.44 145.58 134.966C143.285 127.48 124.276 127.099 120.489 127.099C116.701 127.099 97.6925 127.48 95.4425 134.839C95.2612 135.352 95.1687 135.888 95.1688 136.428V206.322C95.1694 206.497 95.1832 206.672 95.21 206.845L95.2663 207.198C95.7125 214.533 111.256 215.641 120.575 215.641C126.466 215.641 145.629 214.981 145.783 206.538C145.783 206.382 145.813 206.185 145.813 205.878V171.261C145.813 171.088 145.888 170.932 145.888 170.752C145.888 170.625 145.824 170.519 145.813 170.399V159.325C145.828 159.152 145.888 158.997 145.888 158.817ZM104.78 144.074L105.665 144.282C106.205 144.406 106.749 144.515 107.3 144.617L108.118 144.773C108.8 144.886 109.475 144.988 110.15 145.08L110.551 145.136C111.361 145.239 112.156 145.324 112.929 145.398L113.589 145.451C114.136 145.497 114.665 145.539 115.175 145.574L115.925 145.617C116.383 145.641 116.81 145.666 117.223 145.68L117.853 145.705L118.955 145.737H119.405H120.507H121.61H122.056L123.181 145.705L123.804 145.68C124.216 145.68 124.651 145.641 125.109 145.617L125.833 145.574C126.346 145.539 126.879 145.497 127.43 145.451L128.079 145.398C128.855 145.324 129.65 145.239 130.464 145.136L130.839 145.08C131.518 144.988 132.2 144.889 132.882 144.773L133.696 144.621C134.248 144.515 134.795 144.406 135.339 144.268L136.22 144.059C136.745 143.925 137.255 143.78 137.761 143.629C137.949 143.572 138.136 143.53 138.335 143.47V146.21C132.757 148.507 126.676 149.511 120.601 149.137C114.466 149.52 108.323 148.502 102.695 146.171V143.47C102.879 143.53 103.07 143.572 103.265 143.629C103.745 143.795 104.255 143.939 104.78 144.074ZM120.575 156.228C126.573 156.277 132.546 155.505 138.309 153.936V158.174C132.726 160.456 126.648 161.455 120.575 161.091C114.44 161.472 108.298 160.454 102.669 158.124V153.915C108.487 155.498 114.519 156.277 120.575 156.228ZM102.669 189.733C114.322 192.788 126.64 192.788 138.294 189.733V193.97C132.715 196.263 126.634 197.265 120.56 196.894C114.425 197.275 108.283 196.257 102.654 193.928L102.669 189.733ZM138.294 182.045C132.715 184.339 126.634 185.341 120.56 184.969C114.425 185.351 108.282 184.334 102.654 182.003V177.801C114.307 180.848 126.62 180.859 138.279 177.832L138.294 182.045ZM138.294 170.12C132.711 172.399 126.633 173.397 120.56 173.033C114.425 173.416 108.282 172.398 102.654 170.067V165.865C114.306 168.917 126.62 168.928 138.279 165.897L138.294 170.12ZM136.884 136.425C136.775 136.467 136.685 136.51 136.569 136.552L136.107 136.711C135.778 136.82 135.414 136.93 135.028 137.036C134.863 137.082 134.709 137.131 134.536 137.174C133.161 137.524 131.766 137.804 130.359 138.01C130.123 138.049 129.864 138.078 129.609 138.113C129.016 138.193 128.391 138.267 127.734 138.335C127.423 138.371 127.1 138.399 126.774 138.431C126.106 138.487 125.413 138.537 124.696 138.575C124.378 138.597 124.07 138.618 123.744 138.632C122.69 138.678 121.599 138.71 120.448 138.71C119.296 138.71 118.198 138.678 117.155 138.632C116.825 138.632 116.518 138.597 116.199 138.575C115.483 138.537 114.789 138.487 114.121 138.431C113.795 138.399 113.476 138.371 113.161 138.335C112.516 138.267 111.898 138.193 111.305 138.113C111.058 138.078 110.799 138.049 110.555 138.01C109.147 137.804 107.753 137.524 106.378 137.174C106.205 137.131 106.051 137.082 105.886 137.036C105.511 136.93 105.136 136.82 104.806 136.711L104.349 136.552C104.229 136.51 104.139 136.467 104.034 136.425C109.335 134.751 114.912 133.983 120.5 134.158C126.065 133.987 131.618 134.75 136.899 136.411L136.884 136.425ZM120.575 208.59C109.921 208.59 104.146 206.976 102.669 206.061V201.654C114.322 204.71 126.64 204.71 138.294 201.654V205.736C132.714 208.007 126.639 208.985 120.575 208.59ZM210.736 85.5502C208.441 78.0639 189.433 77.6861 185.649 77.6861C181.865 77.6861 162.853 78.0639 160.599 85.4266C160.419 85.9394 160.327 86.4757 160.325 87.0156V204.115C160.325 212.237 178.093 213.127 185.735 213.127C191.649 213.127 210.954 212.463 210.954 203.914V87.0298C210.964 86.5289 210.89 86.0296 210.736 85.5502ZM203.469 108.754C197.888 111.044 191.806 112.045 185.731 111.674C179.596 112.057 173.453 111.039 167.825 108.708V104.432C173.648 106.027 179.686 106.821 185.75 106.791C191.749 106.837 197.724 106.066 203.488 104.499L203.469 108.754ZM185.75 118.737C191.749 118.788 197.723 118.02 203.488 116.456V120.693C197.907 122.985 191.826 123.988 185.75 123.617C179.615 124 173.472 122.982 167.844 120.651V116.449C173.663 118.024 179.695 118.794 185.75 118.737ZM185.75 130.672C191.749 130.721 197.724 129.95 203.488 128.384V132.622C197.907 134.914 191.826 135.917 185.75 135.546C179.615 135.928 173.472 134.911 167.844 132.579V128.374C173.663 129.952 179.695 130.726 185.75 130.672ZM185.75 142.608C191.749 142.657 197.724 141.886 203.488 140.32V144.557C197.908 146.854 191.826 147.858 185.75 147.485C179.615 147.866 173.473 146.848 167.844 144.519V140.309C173.663 141.887 179.695 142.662 185.75 142.608ZM185.75 154.544C191.749 154.591 197.724 153.819 203.488 152.252V156.391C197.909 158.688 191.826 159.691 185.75 159.318C179.615 159.7 173.472 158.683 167.844 156.352V152.245C173.663 153.823 179.695 154.597 185.75 154.544ZM185.75 166.38C191.749 166.429 197.724 165.657 203.488 164.089V167.818C197.907 170.11 191.826 171.113 185.75 170.742C179.615 171.124 173.472 170.107 167.844 167.775V164.082C173.663 165.66 179.695 166.434 185.75 166.38ZM185.75 177.804C191.749 177.853 197.724 177.082 203.488 175.516V179.245C197.907 181.537 191.826 182.54 185.75 182.169C179.615 182.55 173.473 181.532 167.844 179.202V175.509C173.663 177.084 179.695 177.857 185.75 177.804ZM167.825 186.95C173.644 188.528 179.676 189.302 185.731 189.249C191.73 189.298 197.705 188.526 203.469 186.957V190.686C197.889 192.979 191.807 193.982 185.731 193.61C179.596 193.992 173.453 192.975 167.825 190.644V186.95ZM203.469 94.0781V96.8219C197.888 99.1142 191.807 100.117 185.731 99.7458C179.587 100.137 173.435 99.0898 167.825 96.6983V94.0781C168.009 94.1382 168.2 94.1805 168.399 94.237C168.905 94.3889 169.415 94.5337 169.936 94.6643C170.232 94.7385 170.525 94.8091 170.821 94.8762C171.365 94.9998 171.909 95.1093 172.46 95.2117C172.734 95.2646 173 95.3176 173.278 95.3635C173.958 95.4812 174.635 95.5836 175.31 95.6707L175.708 95.7308C176.521 95.8332 177.312 95.9179 178.085 95.9921L178.749 96.045C179.293 96.0909 179.825 96.1333 180.335 96.1686L181.063 96.211L182.364 96.2746L182.99 96.2993L184.115 96.3311H184.565H185.667H186.766H187.216L188.341 96.2993L188.968 96.2746L190.25 96.1969L190.978 96.1545C191.488 96.1192 192.02 96.0768 192.564 96.0309L193.228 95.9779C194 95.9038 194.795 95.819 195.605 95.7166L196.003 95.6566C196.678 95.5695 197.356 95.4671 198.039 95.3494C198.312 95.3035 198.579 95.2505 198.853 95.1975C199.404 95.0951 199.948 94.9857 200.491 94.8621C200.791 94.795 201.08 94.7244 201.376 94.6502C201.901 94.5195 202.408 94.3748 202.914 94.2229C203.083 94.177 203.285 94.1346 203.469 94.0781ZM202.055 87.0156C201.939 87.0615 201.845 87.1039 201.721 87.1498L201.298 87.2946C200.96 87.4076 200.581 87.5206 200.173 87.6477L199.708 87.7784C198.331 88.129 196.935 88.4084 195.526 88.6153L194.776 88.7177C194.188 88.7989 193.573 88.8731 192.928 88.9402L191.96 89.032C191.3 89.092 190.603 89.1414 189.89 89.1803C189.571 89.2015 189.264 89.2227 188.934 89.2368C187.88 89.2827 186.789 89.3145 185.641 89.3145C184.494 89.3145 183.391 89.2827 182.345 89.2368C182.019 89.2368 181.708 89.2015 181.389 89.1803C180.676 89.1414 179.983 89.092 179.319 89.032L178.351 88.9402C177.706 88.8731 177.095 88.7989 176.503 88.7177L175.753 88.6153C174.344 88.4084 172.948 88.129 171.571 87.7784L171.106 87.6477C170.705 87.5347 170.33 87.4217 169.981 87.2946L169.554 87.1498C169.43 87.1039 169.336 87.0615 169.22 87.0156C174.505 85.3538 180.061 84.591 185.63 84.7627C191.204 84.5888 196.766 85.3517 202.055 87.0156ZM185.75 206.065C179.643 206.439 173.523 205.523 167.84 203.384V198.359C179.5 201.415 191.824 201.415 203.484 198.359V203.211C197.9 205.485 191.819 206.464 185.75 206.065Z" fill="#FCA311"/>
<path d="M140.338 70.2069C140.341 70.3439 140.302 70.4789 140.225 70.5953H140.188C140.225 70.4894 140.3 70.3481 140.338 70.2069Z" fill="#14D1DB"/>
<path d="M162.462 40.0147C160.389 37.4276 157.789 35.2552 154.815 33.6243C151.84 31.9934 148.55 30.9366 145.137 30.5156C143.66 30.3181 142.165 30.2589 140.675 30.3391L134.262 27.5847C128.787 25.2541 122.3 22.535 117.537 20.5928L114.875 19.4981C111.19 17.8825 107.095 17.2825 103.062 17.7678C96.2229 18.9547 89.6278 21.1599 83.525 24.3006L80.9375 25.4659C77.975 26.8431 74.9375 28.1144 71.9375 29.3856C69.9875 30.1978 68.0375 31.0453 66.125 31.8928L65.675 32.0694C61.3547 34.2326 56.6757 35.6894 51.8375 36.3775C45.35 36.8013 14.7875 36.8366 14.4875 36.8366C13.4929 36.8366 12.5391 37.2086 11.8358 37.8708C11.1326 38.5331 10.7375 39.4313 10.7375 40.3678V75.1859C10.737 76.1044 11.1167 76.9869 11.7958 77.6462C12.4749 78.3055 13.4001 78.6896 14.375 78.7172C18.6875 78.8584 23.5625 78.9644 28.4375 79.1056C33.4625 79.2116 38.45 79.3528 42.9125 79.4941L44.6375 79.5294C46.2488 79.4531 47.8636 79.5838 49.4375 79.9178C51.125 80.3416 52.8125 80.8713 54.4625 81.3656C55.5125 81.6834 56.5625 82.0013 57.6125 82.2838C63.1625 83.8728 68.7125 85.4266 74.3 86.9803C75.5 87.2981 76.7375 87.5806 77.9375 87.8984C80.4125 88.5341 82.7375 89.0991 85.0625 89.8406L85.8125 90.0878C89.0003 91.3123 92.3861 92.0169 95.825 92.1712C96.7172 92.1694 97.6076 92.0985 98.4875 91.9594C101.481 91.5014 104.326 90.4152 106.812 88.7812C111.027 86.4882 115.54 84.7196 120.237 83.5197C121.775 83.0253 123.275 82.5663 124.662 82.1072C126.786 81.4531 128.854 80.6505 130.85 79.7059C131.187 79.5647 131.525 79.3881 131.862 79.2469C132.451 78.9711 133.015 78.6523 133.55 78.2934H133.587C136.206 79.0884 138.937 79.5051 141.688 79.5294C148.013 79.5194 154.122 77.3544 158.885 73.434C163.648 69.5136 166.743 64.1027 167.6 58.2006C168.066 55 167.851 51.7441 166.969 48.6221C166.087 45.5002 164.555 42.5744 162.462 40.0147ZM133.325 67.2053C133.331 67.3008 133.318 67.3966 133.287 67.4878C133.287 67.5938 133.25 67.6644 133.25 67.735V67.8763C133.212 68.0175 133.175 68.1234 133.137 68.2647C133.137 68.3 133.1 68.3706 133.1 68.4059C132.982 68.7476 132.831 69.0786 132.65 69.3947C132.101 70.22 131.403 70.9489 130.587 71.5488C130.55 71.5841 130.475 71.6194 130.437 71.6547C129.797 72.1626 129.106 72.6119 128.375 72.9966C128.187 73.0672 128 73.1731 127.812 73.2438C127.7 73.2791 127.55 73.3497 127.437 73.385C125.748 74.1971 123.992 74.8819 122.187 75.4331C120.8 75.904 119.375 76.363 117.912 76.8103C112.448 78.1884 107.221 80.293 102.387 83.0606C100.855 84.0689 99.0975 84.7333 97.25 85.0028C94.1707 85.1526 91.098 84.6078 88.2875 83.4137L87.4625 83.1666C84.9125 82.3191 82.3625 81.6834 79.85 81.0831C78.6875 80.7653 77.525 80.4828 76.3625 80.165C70.85 78.6466 65.3 77.1281 59.7875 75.5391C58.775 75.2566 57.8 74.9388 56.7875 74.6562C54.9875 74.0913 53.225 73.5616 51.425 73.1025C49.2276 72.6097 46.9701 72.3959 44.7125 72.4669L43.1375 72.4316C38.675 72.2903 33.65 72.1491 28.625 72.0431C25.1 71.9372 21.575 71.8666 18.2375 71.7606V43.8991C26.75 43.8638 46.9625 43.7931 52.3625 43.4047C58.1127 42.6883 63.6848 41.027 68.825 38.4963L69.275 38.2844C71.1875 37.4369 73.1 36.6247 75.0125 35.8125C78.125 34.5059 81.2 33.1994 84.2 31.8222L86.75 30.6569C92.1632 27.8526 98.0088 25.8628 104.075 24.7597C106.715 24.4487 109.395 24.8529 111.8 25.925L114.5 27.055C118.737 28.7853 124.325 31.1159 129.35 33.2347C128.65 33.5693 127.973 33.9468 127.325 34.3647C126.762 34.6825 126.237 35.0709 125.712 35.4241L125.637 35.4947C125.3 35.7419 125 35.9891 124.7 36.2363C124.4 36.4834 124.175 36.66 123.912 36.9072C123.725 37.0838 123.5 37.225 123.35 37.4016L122.787 37.9313C122.418 38.2792 122.068 38.6446 121.737 39.0259C121.185 39.5983 120.683 40.2125 120.237 40.8622C119.979 41.1899 119.741 41.5318 119.525 41.8863C119.127 42.4545 118.763 43.0441 118.437 43.6519C110.59 42.8539 102.652 43.6363 95.15 45.9472C92.0565 46.9548 89.2745 48.665 87.05 50.9263C85.7379 52.2738 84.7823 53.8941 84.261 55.6553C83.7397 57.4164 83.6674 59.2685 84.05 61.0609C84.5829 62.7973 85.5482 64.3888 86.8657 65.7031C88.1833 67.0175 89.8149 68.0167 91.625 68.6178L92.6 68.9709C94.4942 69.8499 96.6488 70.0989 98.7125 69.6772C105.506 68.3196 112.206 66.5743 118.775 64.4509C119.086 64.3763 119.388 64.2697 119.675 64.1331C120.087 64.0272 120.5 63.8506 120.95 63.7094C121.025 63.6741 121.1 63.6741 121.175 63.6387C121.498 63.5487 121.812 63.4305 122.112 63.2856H122.15C122.46 63.2235 122.762 63.1288 123.05 63.0031L123.95 62.6853L124.362 62.5794C124.625 62.5088 124.887 62.4028 125.15 62.3322C125.412 62.2616 125.675 62.1909 125.937 62.1203C126.53 61.9392 127.152 61.8556 127.775 61.8731C128.994 61.9086 130.17 62.3071 131.134 63.0114C132.097 63.7156 132.799 64.6894 133.137 65.7928C133.255 66.2317 133.318 66.6821 133.325 67.1347V67.2053ZM115.737 57.9888C109.803 59.8479 103.77 61.4156 97.6625 62.6853C96.9188 62.8757 96.1257 62.787 95.45 62.4381L94.2875 62.0144C93.6208 61.8174 93.0106 61.4796 92.5037 61.0267C91.9968 60.5738 91.6064 60.0179 91.3625 59.4013C91.255 58.7133 91.3175 58.0113 91.5452 57.3499C91.7728 56.6884 92.1594 56.0853 92.675 55.5875C94.0998 54.2049 95.8642 53.174 97.8125 52.5859C103.656 50.7697 109.833 50.0967 115.962 50.6084C115.879 50.946 115.816 51.288 115.775 51.6325C115.444 53.739 115.431 55.879 115.737 57.9888ZM160.175 57.2472C159.502 61.8095 156.959 65.9424 153.09 68.7607C149.221 71.579 144.334 72.8587 139.475 72.3256C139.662 71.9372 139.85 71.5488 140 71.1603C140.031 71.064 140.069 70.9697 140.112 70.8778C140.151 70.7872 140.176 70.6922 140.187 70.5953C140.225 70.4894 140.3 70.3481 140.337 70.2069C140.414 70.0904 140.453 69.9555 140.45 69.8184C140.562 69.43 140.637 69.0063 140.712 68.5825C140.758 68.2901 140.783 67.9952 140.787 67.6997C140.82 67.5727 140.833 67.4418 140.825 67.3113C140.831 66.6376 140.781 65.9646 140.675 65.2984C140.6 64.8747 140.487 64.4156 140.375 63.9566C140.265 63.5327 140.114 63.1191 139.925 62.7206C139.854 62.5031 139.766 62.2906 139.662 62.085C139.473 61.6974 139.26 61.3202 139.025 60.955C139.025 60.9197 138.987 60.9197 138.987 60.8844C138.668 60.3941 138.317 59.9224 137.937 59.4719L137.862 59.4013C137.449 58.9001 136.985 58.4388 136.475 58.0241C136.167 57.7578 135.841 57.5101 135.5 57.2825C134.934 56.8524 134.318 56.4851 133.662 56.1878C133.454 56.0541 133.227 55.9472 132.987 55.87C132.757 55.7609 132.519 55.6666 132.275 55.5875C131.981 55.4775 131.68 55.3832 131.375 55.305C130.629 55.0928 129.863 54.9508 129.087 54.8813C128.675 54.8459 128.3 54.8106 127.887 54.8106H127.812C126.47 54.8116 125.134 54.9778 123.837 55.305C123.57 55.3714 123.307 55.454 123.05 55.5522C123.006 54.5612 123.057 53.5685 123.2 52.5859C123.375 51.2282 123.741 49.8982 124.287 48.6309C124.512 48.1013 124.775 47.5716 125.037 47.0419C125.351 46.4461 125.701 45.8683 126.087 45.3116C126.425 44.8172 126.8 44.3581 127.137 43.9344C127.235 43.8493 127.323 43.7546 127.4 43.6519C127.775 43.2281 128.15 42.8397 128.562 42.4513C129.334 41.7457 130.161 41.0965 131.037 40.5091C131.487 40.2266 131.975 39.9441 132.425 39.6969C132.5 39.6616 132.612 39.5909 132.687 39.5556C133.197 39.2916 133.723 39.0558 134.262 38.8494L135.05 38.5316C135.417 38.3928 135.793 38.2748 136.175 38.1784C136.714 38.0117 137.266 37.8819 137.825 37.79C138.046 37.7262 138.271 37.6789 138.5 37.6488C138.659 37.6054 138.822 37.5816 138.987 37.5781C139.385 37.5115 139.785 37.4644 140.187 37.4369H140.262C141.55 37.3328 142.846 37.3683 144.125 37.5428C149.028 38.1528 153.472 40.571 156.482 44.266C159.492 47.961 160.82 52.6302 160.175 57.2472Z" fill="black"/>
<path d="M140.187 70.5953C140.176 70.6922 140.151 70.7872 140.112 70.8778C140.156 70.7859 140.194 70.6916 140.225 70.5953C140.302 70.4789 140.341 70.3439 140.337 70.2069C140.3 70.3481 140.225 70.4894 140.187 70.5953ZM140.187 70.5953C140.176 70.6922 140.151 70.7872 140.112 70.8778C140.156 70.7859 140.194 70.6916 140.225 70.5953C140.302 70.4789 140.341 70.3439 140.337 70.2069C140.3 70.3481 140.225 70.4894 140.187 70.5953Z" fill="#212E5A"/>
<path d="M148.662 54.6341C150.002 56.3237 150.582 58.4423 150.275 60.5313C150.062 62.004 149.411 63.3896 148.395 64.5273C147.379 65.665 146.042 66.5079 144.538 66.9581L144.425 67.5938C144.299 68.4362 143.853 69.2073 143.171 69.7652C142.489 70.3232 141.616 70.6305 140.713 70.6306C140.549 70.6352 140.386 70.6233 140.225 70.5953L140.23 70.6093C140.341 70.2232 140.341 70.2232 140.453 69.8372C140.563 69.43 140.638 69.0063 140.713 68.5825C140.758 68.2901 140.783 67.9952 140.788 67.6997C140.82 67.5727 140.833 67.4418 140.825 67.3113C140.831 66.6377 140.781 65.9646 140.675 65.2984C140.6 64.8747 140.488 64.4156 140.375 63.9566C140.265 63.5327 140.114 63.1191 139.925 62.7206C139.854 62.5031 139.766 62.2906 139.663 62.085C139.473 61.6974 139.26 61.3202 139.025 60.955C139.025 60.9197 138.988 60.9197 138.988 60.8844C138.668 60.3941 138.317 59.9224 137.938 59.4719L137.863 59.4013C137.449 58.9001 136.985 58.4388 136.475 58.0241C137.334 57.7496 138.271 57.7812 139.107 58.1131C139.943 58.445 140.621 59.0541 141.013 59.825C141.089 59.9562 141.196 60.0691 141.326 60.1549C141.456 60.2406 141.606 60.2969 141.762 60.3194H141.838C142.077 60.324 142.31 60.2484 142.495 60.1061C142.681 59.9638 142.806 59.764 142.85 59.5425C142.867 59.4245 142.86 59.3045 142.828 59.1893C142.795 59.0742 142.739 58.9662 142.663 58.8716C142.589 58.7731 142.495 58.6905 142.385 58.6296C142.275 58.5687 142.152 58.5307 142.025 58.5184C140.366 58.2984 138.814 57.6198 137.565 56.5686C136.316 55.5174 135.427 54.1408 135.009 52.6133C134.592 51.0857 134.665 49.4758 135.22 47.9874C135.774 46.499 136.785 45.1991 138.125 44.2522C138.871 43.7217 139.708 43.3156 140.6 43.0516L140.675 42.4513C140.829 41.5307 141.357 40.7026 142.148 40.1424C142.939 39.5822 143.931 39.3338 144.912 39.4497C145.404 39.5145 145.876 39.6704 146.303 39.9083C146.73 40.1463 147.102 40.4616 147.399 40.836C147.695 41.2104 147.91 41.6364 148.03 42.0895C148.15 42.5425 148.174 43.0136 148.1 43.4753L148.025 44.0756C149.115 44.7894 150.014 45.7324 150.65 46.83C150.891 47.237 151.044 47.6853 151.099 48.1485C151.154 48.6117 151.11 49.0806 150.97 49.5277C150.831 49.9749 150.598 50.3913 150.285 50.7527C149.973 51.1141 149.587 51.4132 149.15 51.6325C148.272 52.0702 147.248 52.1675 146.295 51.9036C145.342 51.6397 144.536 51.0355 144.05 50.22C143.993 50.0895 143.901 49.9752 143.782 49.8885C143.664 49.8018 143.523 49.7457 143.375 49.7256H143.338C143.085 49.6981 142.831 49.7612 142.625 49.9022C142.438 50.0615 142.307 50.271 142.25 50.5025C142.233 50.6205 142.24 50.7405 142.272 50.8557C142.305 50.9708 142.361 51.0788 142.438 51.1734C142.593 51.3654 142.822 51.4923 143.075 51.5266C145.301 51.8256 147.31 52.943 148.662 54.6341Z" fill="#0FC00B"/>
</svg>
