<svg width="58" height="49" viewBox="0 0 58 49" fill="none" xmlns="http://www.w3.org/2000/svg">
<g id="Icon">
<path id="Vector" d="M6.75 17.4716V17.9716H7.25H50.75H51.25V17.4716V15.0568C51.25 13.8364 50.7036 12.6798 49.7549 11.8371C48.808 10.9962 47.5352 10.5322 46.2188 10.5322H11.7812C10.4648 10.5322 9.19199 10.9962 8.24514 11.8371C7.29636 12.6798 6.75 13.8364 6.75 15.0568V17.4716ZM51.25 20.6913V20.1913H50.75H7.25H6.75V20.6913V35.9848C6.75 37.2053 7.29636 38.3618 8.24514 39.2045C9.19199 40.0455 10.4648 40.5095 11.7812 40.5095H46.2188C47.5352 40.5095 48.808 40.0455 49.7549 39.2045C50.7036 38.3618 51.25 37.2053 51.25 35.9848V20.6913ZM4.125 15.0568C4.125 13.2885 4.91536 11.5788 6.34595 10.3081C7.77846 9.0358 9.73281 8.3125 11.7812 8.3125H46.2188C48.2672 8.3125 50.2215 9.0358 51.6541 10.3081C53.0846 11.5788 53.875 13.2885 53.875 15.0568V35.9848C53.875 37.7531 53.0846 39.4629 51.6541 40.7335C50.2215 42.0059 48.2672 42.7292 46.2188 42.7292H11.7812C9.73281 42.7292 7.77846 42.0059 6.34595 40.7335C4.91536 39.4629 4.125 37.7531 4.125 35.9848V15.0568ZM38.0625 30.8504H43.5C43.866 30.8504 44.2068 30.98 44.4496 31.1957C44.6905 31.4097 44.8125 31.6863 44.8125 31.9602C44.8125 32.2342 44.6905 32.5108 44.4496 32.7247C44.2068 32.9404 43.866 33.0701 43.5 33.0701H38.0625C37.6965 33.0701 37.3557 32.9404 37.1129 32.7247C36.872 32.5108 36.75 32.2342 36.75 31.9602C36.75 31.6863 36.872 31.4097 37.1129 31.1957C37.3557 30.98 37.6965 30.8504 38.0625 30.8504Z" fill="#FF9D23" stroke="#FF9D23"/>
</g>
</svg>
