<svg width="244" height="227" viewBox="0 0 244 227" fill="none" xmlns="http://www.w3.org/2000/svg">
<g clip-path="url(#clip0_15_110)">
<path d="M231.487 7.93328C231.487 6.99674 231.087 6.09855 230.375 5.43631C229.663 4.77407 228.697 4.40203 227.69 4.40203H10.1592C9.15225 4.40203 8.1865 4.77407 7.47444 5.43631C6.76239 6.09855 6.36237 6.99674 6.36237 7.93328V167.881C6.36237 168.818 6.76239 169.716 7.47444 170.378C8.1865 171.04 9.15225 171.413 10.1592 171.413H177.571L178.186 210.433C178.243 213.638 179.651 216.695 182.108 218.944C184.564 221.193 187.872 222.454 191.32 222.457H191.513H192.417C194.14 222.433 195.842 222.094 197.424 221.459C199.006 220.824 200.439 219.905 201.639 218.755C202.84 217.605 203.785 216.247 204.421 214.757C205.057 213.267 205.371 211.675 205.345 210.073L204.734 171.413H227.69C228.697 171.413 229.663 171.04 230.375 170.378C231.087 169.716 231.487 168.818 231.487 167.881V134.126C239.581 125.101 244.015 113.721 244.015 101.969C244.015 90.2161 239.581 78.8361 231.487 69.8114V7.93328ZM223.893 11.4645V37.225H13.9561V11.4645H223.893ZM13.9561 44.2875H223.893V62.8619C217.258 57.8711 209.446 54.4115 201.098 52.7658C192.75 51.1202 184.101 51.3353 175.86 53.3934C167.618 55.4516 160.017 59.2945 153.677 64.6079C147.338 69.9214 142.441 76.5546 139.386 83.9653C136.331 91.376 135.205 99.3539 136.1 107.247C136.995 115.14 139.886 122.724 144.535 129.379C149.185 136.034 155.462 141.571 162.854 145.538C170.245 149.505 178.541 151.788 187.063 152.202L187.219 161.963L181.235 162.044C180.461 162.048 179.708 162.276 179.081 162.697C178.453 163.118 177.982 163.711 177.734 164.392H13.9561V44.2875ZM185.127 169.025L197.095 168.863L197.182 174.283L185.214 174.449L185.127 169.025ZM196.191 213.837C195.686 214.322 195.083 214.71 194.416 214.977C193.75 215.244 193.033 215.386 192.307 215.394H191.399H191.32C189.87 215.392 188.48 214.861 187.445 213.917C186.411 212.972 185.816 211.689 185.787 210.341L185.332 181.512L197.303 181.346L197.759 210.175C197.772 210.852 197.64 211.524 197.371 212.153C197.102 212.781 196.701 213.354 196.191 213.837ZM204.434 164.35C204.228 163.607 203.764 162.948 203.114 162.475C202.463 162.002 201.664 161.743 200.838 161.737H200.781L194.797 161.818L194.642 152.012C205.335 151.127 215.508 147.318 223.878 141.065V164.371L204.434 164.35ZM230.822 122.498C226.45 130.033 219.772 136.193 211.634 140.198C203.496 144.203 194.264 145.873 185.105 144.997C175.946 144.12 167.273 140.737 160.182 135.275C153.091 129.813 147.902 122.518 145.27 114.312C142.639 106.106 142.684 97.3591 145.399 89.177C148.114 80.9949 153.378 73.7457 160.524 68.3467C167.67 62.9476 176.378 59.6412 185.545 58.8459C194.712 58.0506 203.927 59.8022 212.024 63.8789C222.869 69.3428 230.94 78.5858 234.464 89.5788C237.989 100.572 236.679 112.416 230.822 122.512V122.498Z" fill="black"/>
<path d="M207.118 20.8012H133.77V27.8637H207.118V20.8012Z" fill="black"/>
<path d="M44.9956 20.8012H27.9552V27.8637H44.9956V20.8012Z" fill="black"/>
<path d="M71.5471 20.8012H54.5106V27.8637H71.5471V20.8012Z" fill="black"/>
<path d="M208.128 70.613C201.465 67.2644 193.884 65.8285 186.344 66.4867C178.803 67.145 171.642 69.8679 165.766 74.3112C159.889 78.7545 155.561 84.7186 153.329 91.4495C151.096 98.1803 151.06 105.376 153.225 112.126C155.389 118.876 159.657 124.877 165.489 129.371C171.32 133.866 178.454 136.651 185.987 137.375C193.521 138.099 201.116 136.729 207.812 133.438C214.509 130.148 220.006 125.085 223.608 118.889C228.426 110.575 229.502 100.824 226.6 91.7743C223.698 82.7243 217.055 75.1141 208.128 70.613ZM216.922 115.53C213.543 121.34 208.104 125.88 201.529 128.378C194.955 130.876 187.653 131.176 180.868 129.229C174.082 127.281 168.232 123.205 164.315 117.696C160.398 112.187 158.656 105.585 159.385 99.0151C160.115 92.4453 163.271 86.3139 168.316 81.6656C173.361 77.0173 179.983 74.1396 187.054 73.5228C194.124 72.906 201.206 74.5882 207.093 78.2828C212.979 81.9775 217.306 87.456 219.337 93.785C220.501 97.378 220.887 101.15 220.472 104.883C220.058 108.615 218.851 112.235 216.922 115.53ZM122.607 58.4478H92.9919C91.9849 58.4478 91.0191 58.8199 90.3071 59.4821C89.595 60.1443 89.195 61.0425 89.195 61.9791V91.9347H67.1731V77.1987C67.1731 76.2622 66.7731 75.364 66.061 74.7018C65.349 74.0395 64.3832 73.6675 63.3762 73.6675H33.7606C32.7536 73.6675 31.7879 74.0395 31.0758 74.7018C30.3638 75.364 29.9637 76.2622 29.9637 77.1987V138.081C29.9637 139.018 30.3638 139.916 31.0758 140.578C31.7879 141.24 32.7536 141.612 33.7606 141.612H122.607C123.614 141.612 124.58 141.24 125.292 140.578C126.004 139.916 126.404 139.018 126.404 138.081V61.9791C126.404 61.0425 126.004 60.1443 125.292 59.4821C124.58 58.8199 123.614 58.4478 122.607 58.4478ZM37.5043 80.73H59.5452V134.55H37.5233L37.5043 80.73ZM67.12 98.9972H89.1418V134.55H67.12V98.9972ZM118.811 134.55H96.7888V65.5103H118.811V134.55Z" fill="#FF9D23"/>
</g>
<defs>
<clipPath id="clip0_15_110">
<rect width="243" height="226" fill="white" transform="translate(0.5 0.5)"/>
</clipPath>
</defs>
</svg>
