<svg width="54" height="49" viewBox="0 0 54 49" fill="none" xmlns="http://www.w3.org/2000/svg">
<rect width="54" height="49" fill="#1E1E1E"/>
<g id="Landing Page" clip-path="url(#clip0_0_1)">
<rect width="1440" height="5869" transform="translate(-802 -645)" fill="white"/>
<g id="Home">
<g id="Achievements">
<rect width="1440" height="337" transform="translate(-802 -94)" fill="white"/>
<g id="Counts" clip-path="url(#clip1_0_1)">
<g id="Row 1" clip-path="url(#clip2_0_1)">
<g id="2">
<g id="Icon">
<rect y="0.5" width="54" height="48" rx="5" fill="white"/>
<path id="Vector" d="M52.1345 38.9242L52.1345 38.9243C52.3543 38.7888 52.5375 38.6184 52.6762 38.4254C52.8147 38.2325 52.9064 38.0205 52.949 37.8022C52.9916 37.584 52.9851 37.3607 52.9295 37.1442C52.8739 36.9275 52.7695 36.7192 52.619 36.532L52.6165 36.529C50.5033 33.859 47.6187 31.7344 44.2579 30.3825L43.4307 30.0498L44.1461 29.5175C46.1908 27.9962 47.6487 25.9592 48.3333 23.6899C49.0176 21.4217 48.8992 19.0219 47.9926 16.8137C47.0856 14.6042 45.4299 12.6863 43.2401 11.3288C41.0498 9.97095 38.4361 9.243 35.7552 9.24992L35.7532 9.24992C34.5604 9.24816 33.3736 9.39457 32.2274 9.68464L32.2192 9.68671L32.2192 9.68664C31.9525 9.74938 31.7054 9.858 31.4918 10.0039C31.2782 10.1498 31.1035 10.3293 30.9749 10.5295L30.5542 10.2592L30.9749 10.5295C30.8464 10.7295 30.7659 10.9469 30.7352 11.169C30.7045 11.391 30.7236 11.6166 30.7923 11.8336C30.8611 12.0508 30.979 12.2576 31.1426 12.4408C31.3063 12.6242 31.5125 12.7801 31.7512 12.8969C31.9899 13.0138 32.2547 13.0883 32.53 13.1145C32.8054 13.1407 33.0835 13.1179 33.3476 13.0479L33.3529 13.0465C34.1345 12.8483 34.9429 12.7486 35.7547 12.7499M52.1345 38.9242L35.7539 13.2499M52.1345 38.9242L52.1287 38.9279C51.7881 39.1443 51.3735 39.2635 50.9436 39.2624C50.6085 39.2607 50.2806 39.1879 49.9878 39.0524C49.6951 38.9171 49.4487 38.7244 49.2654 38.4948M52.1345 38.9242L48.8742 38.8062M35.7547 12.7499L35.7539 13.2499M35.7547 12.7499C35.7545 12.7499 35.7542 12.7499 35.7539 12.7499V13.2499M35.7547 12.7499C38.107 12.7501 40.3731 13.5803 42.0523 15.0729C43.7336 16.5674 44.6914 18.6079 44.6914 20.7499C44.6914 22.8919 43.7336 24.9324 42.0523 26.4269C40.3729 27.9197 38.1065 28.7499 35.7539 28.7499C35.1974 28.7499 34.6739 28.947 34.2962 29.2826C33.9205 29.6166 33.7227 30.0561 33.7227 30.4999C33.7227 30.9438 33.9205 31.3832 34.2962 31.7172C34.6739 32.0529 35.1974 32.2499 35.7539 32.2499H35.7544C38.3974 32.2525 41.0032 32.8188 43.3534 33.9037C45.7034 34.9884 47.732 36.5613 49.2654 38.4948M35.7539 13.2499C37.9917 13.2499 40.1378 14.0401 41.7201 15.4466C43.3025 16.8531 44.1914 18.7608 44.1914 20.7499C44.1914 22.739 43.3025 24.6467 41.7201 26.0532C40.1378 27.4597 37.9917 28.2499 35.7539 28.2499C35.0826 28.2499 34.4387 28.487 33.964 28.9089C33.4893 29.3309 33.2227 29.9032 33.2227 30.4999C33.2227 31.0967 33.4893 31.669 33.964 32.0909C34.4387 32.5129 35.0826 32.7499 35.7539 32.7499C38.3265 32.7524 40.8608 33.3038 43.1439 34.3576C45.427 35.4115 47.3921 36.9371 48.8742 38.8062M49.2654 38.4948C49.2653 38.4946 49.2652 38.4945 49.2651 38.4943L48.8742 38.8062M49.2654 38.4948C49.2656 38.495 49.2658 38.4953 49.266 38.4955L48.8742 38.8062M26.9537 29.5182L26.2416 30.0507L27.0665 30.3825C30.4273 31.7344 33.3119 33.859 35.4251 36.529L35.4331 36.539L35.4415 36.5486C35.6067 36.7368 35.7241 36.9491 35.7901 37.1717C35.8561 37.3941 35.8703 37.6248 35.8325 37.851C35.7947 38.0773 35.7051 38.2978 35.5658 38.4987C35.4264 38.6998 35.2395 38.8778 35.0138 39.019C34.788 39.1603 34.5294 39.2611 34.2532 39.313C33.9771 39.365 33.6915 39.3665 33.4146 39.3174C33.1376 39.2684 32.8775 39.1703 32.6496 39.0312C32.4219 38.8922 32.2324 38.7161 32.0902 38.5162L32.0829 38.506L32.0752 38.4963C30.5449 36.5588 28.5166 34.9827 26.1656 33.8965C23.8146 32.8103 21.2069 32.2445 18.5625 32.2445C15.9181 32.2445 13.3104 32.8103 10.9594 33.8965C8.60837 34.9827 6.58012 36.5588 5.04982 38.4962L5.04857 38.4978C4.86817 38.7281 4.62327 38.9215 4.33108 39.0567C4.03879 39.1919 3.71095 39.2633 3.37628 39.2624L3.37355 39.2624C2.94343 39.2637 2.52848 39.1444 2.18766 38.9279L2.18528 38.9264C1.74419 38.6496 1.46196 38.2405 1.37608 37.8009C1.29061 37.3633 1.40129 36.907 1.69998 36.5288C3.81317 33.8589 6.69775 31.7344 10.0585 30.3825L10.8834 30.0507L10.1713 29.5182C8.13212 27.9934 6.67936 25.9555 5.99808 23.6869C5.31713 21.4194 5.43663 19.0214 6.34213 16.8143C7.24815 14.6059 8.9007 12.6881 11.0868 11.3284C13.2733 9.96844 15.8833 9.23584 18.5625 9.23584C21.2417 9.23584 23.8517 9.96844 26.0382 11.3284C28.2243 12.6881 29.8768 14.6059 30.7829 16.8143C31.6884 19.0214 31.8079 21.4194 31.1269 23.6869C30.4456 25.9555 28.9929 27.9934 26.9537 29.5182ZM11.1473 16.2827C10.1579 17.599 9.625 19.1536 9.625 20.7499C9.625 22.8919 10.5828 24.9324 12.2641 26.4269C13.9435 27.9197 16.2099 28.7499 18.5625 28.7499C20.3179 28.7499 22.0379 28.2874 23.5054 27.4158C24.9733 26.544 26.1269 25.2991 26.8109 23.8312C27.4955 22.3623 27.6758 20.7417 27.3258 19.1776C26.976 17.6141 26.1144 16.1871 24.8609 15.0729C23.608 13.9592 22.0184 13.2063 20.2956 12.9017C18.5729 12.5971 16.7866 12.753 15.1608 13.3516C13.5349 13.9503 12.136 14.9674 11.1473 16.2827Z" fill="#FF9D23" stroke="#FF9D23"/>
</g>
</g>
</g>
</g>
</g>
</g>
</g>
<defs>
<clipPath id="clip0_0_1">
<rect width="1440" height="5869" fill="white" transform="translate(-802 -645)"/>
</clipPath>
<clipPath id="clip1_0_1">
<rect width="538" height="160" fill="white" transform="translate(0 -5.5)"/>
</clipPath>
<clipPath id="clip2_0_1">
<rect width="538" height="60" fill="white" transform="translate(0 -5.5)"/>
</clipPath>
</defs>
</svg>
